<svg xmlns="http://www.w3.org/2000/svg" width="16" height="16" viewBox="0 0 16 16">
    <g fill="none" fill-rule="evenodd">
        <g fill="#292929">
            <g>
                <g>
                    <g>
                        <path d="M14.431 4.781c-.143-.362-.554-.539-.916-.395-.362.144-.539.554-.395.916 1.16 2.881-.065 6.172-2.826 7.595-2.76 1.423-6.15.51-7.825-2.105C.795 8.176 1.387 4.715 3.836 2.804c2.448-1.91 5.948-1.644 8.08.616.13.134.31.21.498.21s.368-.076.499-.21c.282-.268.296-.713.031-.998-2.61-2.792-6.913-3.141-9.94-.807-3.025 2.334-3.78 6.586-1.742 9.819 2.038 3.232 6.2 4.385 9.61 2.663 3.411-1.723 4.952-5.757 3.56-9.316z" transform="translate(-406 -183) translate(406 175) translate(0 8) translate(.507 .507)"/>
                        <path d="M9.305 7.925c.941-.728 1.644-2.02 1.073-3.27-.503-1.025-1.543-1.678-2.685-1.687-1.623.007-3.01 1.17-3.3 2.767-.063.256.021.526.22.7.197.174.475.225.722.13.246-.094.42-.317.45-.58.172-.919.972-1.588 1.908-1.593.588.004 1.127.329 1.405.847.282.628-.282 1.255-.659 1.569-1.524 1.18-1.412 2.347-1.393 2.51.05.355.35.621.71.627h.093c.188-.017.36-.11.479-.256.118-.147.172-.335.149-.522 0 0-.032-.577.828-1.242zM7.084 11.175c-.033.18.007.367.112.517.105.151.266.254.446.286.377.061.733-.19.803-.565.031-.18-.01-.366-.117-.515-.106-.15-.267-.25-.447-.282-.18-.032-.366.008-.515.113-.15.105-.251.266-.282.446z" transform="translate(-406 -183) translate(406 175) translate(0 8) translate(.507 .507)"/>
                    </g>
                </g>
            </g>
        </g>
    </g>
</svg>
