<svg width="22" height="22" viewBox="0 0 22 22" xmlns="http://www.w3.org/2000/svg">
    <path d="m6.286 0-.001 1.571h9.429V0h1.572l-.001 1.571H22V22H0V1.571h4.714V0h1.572zm14.143 7.857H1.57v12.572H20.43V7.857zM7.857 15.714v1.572H4.714v-1.572h3.143zm4.714 0v1.572H9.43v-1.572h3.142zm4.715 0v1.572h-3.143v-1.572h3.143zM7.857 11v1.571H4.714V11h3.143zm4.714 0v1.571H9.43V11h3.142zm4.715 0v1.571h-3.143V11h3.143zM4.714 3.142H1.571v3.143h18.858V3.144l-3.144-.001v1.572h-1.57l-.001-1.572H6.285v1.572h-1.57l-.001-1.572z" fill="#A9A9A9" fill-rule="nonzero"/>
</svg>
