<svg width="24" height="24" xmlns="http://www.w3.org/2000/svg" xmlns:xlink="http://www.w3.org/1999/xlink">
    <defs>
        <path d="M20.5 14a1.5 1.5 0 0 1 1.5 1.5v3a1.5 1.5 0 0 1-1.5 1.5h-17A1.5 1.5 0 0 1 2 18.5v-3A1.5 1.5 0 0 1 3.5 14h17zm0-9A1.5 1.5 0 0 1 22 6.5v3a1.5 1.5 0 0 1-1.5 1.5h-17A1.5 1.5 0 0 1 2 9.5v-3A1.5 1.5 0 0 1 3.5 5h17z" id="a"/>
    </defs>
    <g fill="none" fill-rule="evenodd">
        <mask id="b" fill="#fff">
            <use xlink:href="#a"/>
        </mask>
        <use fill="#4A4A4A" xlink:href="#a"/>
        <g mask="url(#b)" fill="#00AFB8">
            <path d="M0 0h24v24H0z"/>
        </g>
    </g>
</svg>
