<svg width="24" height="24" viewBox="0 0 24 24" xmlns="http://www.w3.org/2000/svg">
    <g fill="none" fill-rule="evenodd">
        <path d="M0 0h24v24H0z"/>
        <g fill="#A9A9A9" fill-rule="nonzero">
            <path d="M6.197 7.267a.78.78 0 0 1-.014-1.018.687.687 0 0 1 .964-.094l.077.074 4.75 5.217a.78.78 0 0 1 .05.978l-.071.083-4.75 4.783a.687.687 0 0 1-.965.01.778.778 0 0 1-.09-1.01l.07-.084 4.235-4.264-4.256-4.675z"/>
            <path d="M11.197 7.267a.78.78 0 0 1-.014-1.018.687.687 0 0 1 .964-.094l.077.074 4.75 5.217a.78.78 0 0 1 .05.978l-.071.083-4.75 4.783a.687.687 0 0 1-.965.01.778.778 0 0 1-.09-1.01l.07-.084 4.235-4.264-4.256-4.675z"/>
        </g>
    </g>
</svg>
