<svg xmlns="http://www.w3.org/2000/svg" width="16" height="16" viewBox="0 0 16 16">
    <g fill="none" fill-rule="evenodd">
        <g fill="#00AFB8" fill-rule="nonzero">
            <g>
                <g>
                    <path d="M4.446 3.397l.084.073L8 6.939l3.47-3.47c.293-.292.767-.292 1.06 0 .267.267.29.684.073.977l-.073.084L9.061 8l3.47 3.47c.292.293.292.767 0 1.06-.267.267-.684.29-.977.073l-.084-.073L8 9.061l-3.47 3.47c-.293.292-.767.292-1.06 0-.267-.267-.29-.684-.073-.977l.073-.084L6.939 8l-3.47-3.47c-.292-.293-.292-.767 0-1.06.237-.237.593-.282.875-.137l.102.064z" transform="translate(-692 -1060) translate(42 957) translate(650 103)"/>
                </g>
            </g>
        </g>
    </g>
</svg>
