<svg width="20" height="20" viewBox="0 0 20 20" xmlns="http://www.w3.org/2000/svg">
    <path d="M5.714 0v1.428h8.571V0h1.43l-.001 1.428H20V20H0V1.429l4.285-.001V0h1.43zm12.857 7.143L1.428 7.142v11.43h17.143V7.141zM7.143 14.286v1.428H4.286v-1.428h2.857zm4.286 0v1.428H8.57v-1.428h2.858zm4.285 0v1.428h-2.857v-1.428h2.857zM7.143 10v1.429H4.286V10h2.857zm4.286 0v1.429H8.57V10h2.858zm4.285 0v1.429h-2.857V10h2.857zM4.285 2.857H1.429l-.001 2.857h17.143V2.857h-2.857v1.429h-1.428l-.001-1.429H5.714v1.429H4.286l-.001-1.429z" fill="#00AFB8" fill-rule="nonzero"/>
</svg>
