<svg width="24" height="24" viewBox="0 0 24 24" xmlns="http://www.w3.org/2000/svg">
    <g stroke="#00AFB8" stroke-width="1.5" fill="none" fill-rule="evenodd" stroke-linecap="round" stroke-linejoin="round">
        <path d="M14.995 8.699c0 .114.031.301-.064.301H9.135c-.096 0-.16-.11-.125-.212V5h5.985v3.699zM8.995 19.699c0 .114.031.301-.064.301H3.135c-.096 0-.16-.11-.125-.212V16h5.985v3.699zM20.995 19.699c0 .114.031.301-.064.301h-5.796c-.096 0-.16-.11-.125-.212V16h5.985v3.699zM6 12.5h12M12 9.811v2M6 12.811v2M18 12.811v2"/>
    </g>
</svg>
