<svg width="24" height="24" viewBox="0 0 24 24" xmlns="http://www.w3.org/2000/svg">
    <g fill="none" fill-rule="evenodd">
        <path d="M0 0h24v24H0z"/>
        <g fill="#A9A9A9" fill-rule="nonzero">
            <path d="M16.99 6.249a.687.687 0 0 0-.964-.094l-.078.074-4.75 5.217a.78.78 0 0 0-.05.978l.072.083 4.75 4.783c.27.267.69.27.964.01a.778.778 0 0 0 .09-1.01l-.07-.084-4.234-4.264 4.256-4.675a.78.78 0 0 0 .014-1.018z"/>
            <path d="M11.99 6.249a.687.687 0 0 0-.964-.094l-.078.074-4.75 5.217a.78.78 0 0 0-.05.978l.072.083 4.75 4.783c.27.267.69.27.964.01a.778.778 0 0 0 .09-1.01l-.07-.084-4.234-4.264 4.256-4.675a.78.78 0 0 0 .014-1.018z"/>
        </g>
    </g>
</svg>
