<svg width="16" height="16" viewBox="0 0 16 16" xmlns="http://www.w3.org/2000/svg">
    <g transform="translate(.667 .013)" fill="#7E7E7E" fill-rule="nonzero">
        <path d="M11.862 0H8.25c-1.82 0-3.3 1.293-3.3 2.88v1.333H2.916a2.893 2.893 0 0 0-2.914 2.86v7.934a.513.513 0 0 0 0 .1c0 .368.299.666.667.666h10.58c.35.001.642-.27.667-.62v-8.08a2.887 2.887 0 0 0-2.887-2.88H6.336V2.86c0-.807.873-1.493 1.913-1.493h3.613c1.034 0 1.907.666 1.907 1.493v12.18a.697.697 0 1 0 1.393 0V2.88c0-1.587-1.48-2.88-3.3-2.88zM10.53 7.073v7.334H6.522v-2.4a.28.28 0 0 0-.28-.28H5.39a.28.28 0 0 0-.273.28v2.366h-3.72v-7.3a1.5 1.5 0 0 1 1.52-1.493h6.166a1.5 1.5 0 0 1 1.48 1.493h-.033z"/>
        <rect x="2.716" y="6.807" width="1.407" height="1.4" rx=".41"/>
        <rect x="5.156" y="6.807" width="1.407" height="1.4" rx=".41"/>
        <rect x="7.669" y="6.807" width="1.407" height="1.4" rx=".41"/>
        <rect x="2.676" y="9.28" width="1.407" height="1.4" rx=".41"/>
        <rect x="5.116" y="9.28" width="1.407" height="1.4" rx=".41"/>
        <rect x="7.636" y="9.28" width="1.407" height="1.4" rx=".41"/>
        <rect x="2.676" y="11.727" width="1.407" height="1.4" rx=".41"/>
        <rect x="7.636" y="11.727" width="1.407" height="1.4" rx=".41"/>
    </g>
</svg>
