<svg width="16" height="16" viewBox="0 0 16 16" xmlns="http://www.w3.org/2000/svg">
    <g fill="#7E7E7E" fill-rule="evenodd">
        <path d="M8.247 0A6.253 6.253 0 0 0 2 6.247c0 2.46 1.62 4.526 3.053 6.346l.527.634a.54.54 0 0 0 .513.226.56.56 0 0 0 .447-.34.54.54 0 0 0-.127-.553l-.5-.667c-1.333-1.68-2.82-3.586-2.82-5.666a5.153 5.153 0 0 1 10.307 0 6.607 6.607 0 0 1-1.44 3.666 21.7 21.7 0 0 1-1.58 2.067l-2.56 3.147a.547.547 0 0 0 .853.666l2.54-3.126c.591-.692 1.141-1.418 1.647-2.174a7.627 7.627 0 0 0 1.633-4.253A6.253 6.253 0 0 0 8.247 0"/>
        <path d="M10.913 6.247a2.667 2.667 0 1 0-5.333 0 2.667 2.667 0 0 0 5.333 0m-4.24 0a1.573 1.573 0 1 1 3.147-.014 1.573 1.573 0 0 1-3.147.014"/>
    </g>
</svg>
