<svg width="24" height="24" viewBox="0 0 24 24" xmlns="http://www.w3.org/2000/svg" xmlns:xlink="http://www.w3.org/1999/xlink">
    <defs>
        <path d="M12 1a2.75 2.75 0 0 1 2.75 2.75v.079a.6.6 0 0 0 .37.549.593.593 0 0 0 .65-.112l.055-.055a2.75 2.75 0 1 1 3.89 3.89l-.047.048a.596.596 0 0 0-.12.658c.027.058.046.12.06.182.108.16.29.26.486.261h.156a2.75 2.75 0 1 1 0 5.5h-.079a.596.596 0 0 0-.545.361.596.596 0 0 0 .108.66l.055.054a2.75 2.75 0 1 1-3.89 3.89l-.048-.047a.6.6 0 0 0-.667-.115.595.595 0 0 0-.36.541v.156a2.75 2.75 0 1 1-5.5 0 .64.64 0 0 0-.444-.628.593.593 0 0 0-.65.112l-.055.055a2.75 2.75 0 1 1-3.89-3.89l.047-.048a.6.6 0 0 0 .115-.667.595.595 0 0 0-.541-.36H3.75a2.75 2.75 0 1 1 0-5.5.64.64 0 0 0 .628-.444.593.593 0 0 0-.112-.65l-.055-.055a2.75 2.75 0 1 1 3.89-3.89l.048.047c.174.17.435.218.658.12a.917.917 0 0 1 .182-.06.593.593 0 0 0 .261-.486V3.75A2.75 2.75 0 0 1 12 1zm0 1.833a.917.917 0 0 0-.917.917v.16a2.43 2.43 0 0 1-1.472 2.223.917.917 0 0 1-.242.066 2.434 2.434 0 0 1-2.509-.563l-.055-.056a.917.917 0 1 0-1.298 1.298l.062.063c.695.71.887 1.77.508 2.625a2.436 2.436 0 0 1-2.244 1.59H3.75a.917.917 0 1 0 0 1.834h.16a2.426 2.426 0 0 1 2.219 1.463c.4.909.208 1.97-.493 2.687l-.056.055a.917.917 0 1 0 1.298 1.298l.063-.062c.71-.695 1.77-.887 2.625-.508a2.436 2.436 0 0 1 1.59 2.245v.082a.917.917 0 1 0 1.834 0v-.16a2.426 2.426 0 0 1 1.463-2.219 2.432 2.432 0 0 1 2.687.493l.055.056a.917.917 0 1 0 1.298-1.298l-.062-.063a2.43 2.43 0 0 1-.486-2.68 2.427 2.427 0 0 1 2.223-1.462h.082a.917.917 0 0 0 0-1.834h-.16a2.43 2.43 0 0 1-2.223-1.472.917.917 0 0 1-.066-.242 2.434 2.434 0 0 1 .563-2.509l.056-.055a.917.917 0 1 0-1.298-1.298l-.063.062a2.426 2.426 0 0 1-2.67.49 2.43 2.43 0 0 1-1.472-2.227V3.75A.917.917 0 0 0 12 2.833zm0 5.5a3.667 3.667 0 1 1 0 7.334 3.667 3.667 0 0 1 0-7.334zm0 5.5a1.833 1.833 0 1 0 0-3.666 1.833 1.833 0 0 0 0 3.666z" id="hkid512ava"/>
    </defs>
    <g fill="none" fill-rule="evenodd">
        <mask id="3kjbu8cd1b" fill="#fff">
            <use xlink:href="#hkid512ava"/>
        </mask>
        <use fill="#000" fill-rule="nonzero" xlink:href="#hkid512ava"/>
        <g mask="url(#3kjbu8cd1b)" fill="#A9A9A9">
            <path d="M0 0h24v24H0z"/>
        </g>
    </g>
</svg>
