<svg xmlns="http://www.w3.org/2000/svg" width="17" height="16" viewBox="0 0 17 16">
    <g fill="#00AFB8">
        <path d="M13.592 3.298c1.281.081 2.318 1.088 2.402 2.35l.006.165v6.332c0 1.338-1.07 2.431-2.408 2.516l-.169.006H2.577c-1.358 0-2.484-1.04-2.571-2.356L0 12.145V5.813c0-1.337 1.071-2.43 2.408-2.515l.169-.006h.753v-.1c0-.98.776-1.78 1.746-1.853l.147-.006h5.554c.988 0 1.811.753 1.887 1.713l.006.145-.001.1.754.001.169.006zm-1.672 1.49c-.38 0-.694-.28-.743-.646l-.007-.101v-.85c0-.168-.134-.318-.314-.353l-.08-.008H5.224c-.191 0-.349.13-.385.29l-.008.071v.85c0 .378-.282.691-.648.741l-.102.007H2.577c-.556 0-1.012.407-1.07.914l-.007.11v6.332c0 .52.42.962.96 1.019l.117.006h10.846c.556 0 1.012-.407 1.07-.915l.007-.11V5.813c0-.52-.42-.961-.96-1.018l-.117-.006H11.92z"/>
        <path d="M7.806 12.662C5.873 12.56 4.333 10.957 4.333 9c0-2.023 1.645-3.668 3.667-3.668s3.667 1.645 3.667 3.668c0 1.956-1.54 3.56-3.473 3.66L8 12.668l-.194-.005zM8 6.8c-1.212 0-2.2.988-2.2 2.2 0 1.162.907 2.117 2.05 2.195L8 11.2l.15-.005c1.093-.074 1.97-.952 2.045-2.044L10.2 9C10.2 7.788 9.212 6.8 8 6.8z"/>
    </g>
</svg>
