<svg xmlns="http://www.w3.org/2000/svg" width="28" height="28" viewBox="0 0 28 28">
    <g fill="none" fill-rule="evenodd">
        <g fill="#00AFB8" fill-rule="nonzero">
            <g>
                <g>
                    <path d="M14 6c3.098 0 5.81 1.496 8.117 3.956.792.846 1.48 1.748 2.063 2.65.353.546.594.976.723 1.234.13.258.13.562 0 .82-.129.258-.37.688-.723 1.233-.583.903-1.271 1.805-2.063 2.65C19.81 21.004 17.098 22.5 14 22.5c-3.098 0-5.81-1.496-8.117-3.956-.792-.846-1.48-1.748-2.063-2.65-.353-.546-.594-.976-.723-1.234-.13-.258-.13-.562 0-.82.129-.258.37-.688.723-1.233.583-.903 1.271-1.805 2.063-2.65C8.19 7.496 10.902 6 14 6zm0 2.2c-2.48 0-4.718 1.182-6.68 3.184-.7.716-1.314 1.485-1.833 2.255-.147.218-.278.423-.392.611.114.188.245.393.392.611.52.77 1.132 1.54 1.834 2.255C9.28 19.118 11.52 20.3 14 20.3c2.48 0 4.718-1.182 6.68-3.184.7-.716 1.314-1.485 1.833-2.255.147-.218.278-.423.392-.611-.114-.188-.245-.393-.392-.611-.52-.77-1.132-1.54-1.834-2.255C18.72 9.382 16.48 8.2 14 8.2zm0 2.2c2.025 0 3.667 1.724 3.667 3.85 0 2.126-1.642 3.85-3.667 3.85s-3.667-1.724-3.667-3.85c0-2.126 1.642-3.85 3.667-3.85zm0 2.2c-.868 0-1.571.739-1.571 1.65 0 .911.703 1.65 1.571 1.65s1.571-.739 1.571-1.65c0-.911-.703-1.65-1.571-1.65z" transform="translate(-270.000000, -162.000000) translate(220.000000, 80.000000) translate(50.000000, 82.000000)"/>
                </g>
            </g>
        </g>
    </g>
</svg>
