<svg xmlns="http://www.w3.org/2000/svg" xmlns:xlink="http://www.w3.org/1999/xlink" width="24" height="24" viewBox="0 0 24 24">
    <defs>
        <path id="gqhy5pe4ja" d="M13.182 2c.108 0 .212.021.307.06l.022.01c.025.01.05.023.074.036l.02.012c.022.013.042.027.062.041l.024.019c.019.015.037.03.054.047l.015.015 5.728 5.727.02.022.027.03-.047-.052c.031.031.06.065.085.1l.03.046.019.03c.043.076.074.16.091.25.01.05.014.1.014.152v9c0 1.356-1.099 2.455-2.454 2.455H7.455C6.099 20 5 18.901 5 17.545V4.455C5 3.099 6.099 2 7.455 2zm-.819 1.636H7.455c-.452 0-.819.367-.819.819v13.09c0 .452.367.819.819.819h9.818c.452 0 .818-.367.818-.819l-.001-8.182h-4.908c-.417 0-.762-.311-.812-.715l-.006-.103-.001-4.909zM15 14c.552 0 1 .448 1 1s-.448 1-1 1H9c-.552 0-1-.448-1-1s.448-1 1-1h6zm-4-5c.552 0 1 .448 1 1v2c0 .552-.448 1-1 1H9c-.552 0-1-.448-1-1v-2c0-.552.448-1 1-1h2zm3-4.206v2.933h2.933L14 4.794z"/>
    </defs>
    <g fill="none" fill-rule="evenodd">
        <g>
            <g>
                <g>
                    <g>
                        <g transform="translate(-240.000000, -605.000000) translate(220.000000, 338.000000) translate(20.000000, 253.000000) translate(0.000000, 13.000000) translate(0.000000, 1.000000)">
                            <mask id="k4cozicdyb" fill="#fff">
                                <use xlink:href="#gqhy5pe4ja"/>
                            </mask>
                            <use fill="#000" fill-rule="nonzero" stroke="#00AFB8" stroke-width=".2" xlink:href="#gqhy5pe4ja"/>
                            <rect width="9" height="2" x="8" y="15" fill="#000" fill-rule="nonzero" stroke="#00AFB8" stroke-width=".2" mask="url(#k4cozicdyb)" rx="1"/>
                            <rect width="6" height="2" x="8" y="10" fill="#000" fill-rule="nonzero" stroke="#00AFB8" stroke-width=".2" mask="url(#k4cozicdyb)" rx="1"/>
                            <g fill="#00AFB8" mask="url(#k4cozicdyb)">
                                <path d="M0 0H24V24H0z" transform="translate(0.000000, -1.000000)"/>
                            </g>
                        </g>
                    </g>
                </g>
            </g>
        </g>
    </g>
</svg>
