<?xml version="1.0" encoding="UTF-8"?>
<svg width="28px" height="28px" viewBox="0 0 28 28" version="1.1" xmlns="http://www.w3.org/2000/svg" xmlns:xlink="http://www.w3.org/1999/xlink">
    <title>D1007B52-AA17-4CF2-8D02-88131BF0D684</title>
    <g id="報價單管理_Keypage" stroke="none" stroke-width="1" fill="none" fill-rule="evenodd" stroke-linecap="round" stroke-linejoin="round">
        <g id="Ord2新增報價單優化_草稿" transform="translate(-1232.000000, -114.000000)" stroke="#7E7E7E">
            <g id="Group-12" transform="translate(1113.000000, 109.000000)">
                <g id="icon/ordoff_namal" transform="translate(119.000000, 5.000000)">
                    <g id="Group-13" transform="translate(1.000000, 7.000000)">
                        <path d="M20.7574773,13.2631579 L20.9658888,14.2045263 C21.0889775,14.5854737 20.8637812,15 20.5336797,15 L0.466494355,15 C0.136392887,15 -0.0892696994,14.5854737 0.0342852289,14.2045263 L3.34369233,0 L18.500087,0" id="Stroke-7" stroke-width="1.5"></path>
                        <line x1="6" y1="4" x2="10" y2="4" id="Stroke-9" stroke-width="1.5"></line>
                        <line x1="5" y1="7" x2="9" y2="7" id="Stroke-11" stroke-width="1.5"></line>
                        <g id="Group" transform="translate(12.000000, 3.000000)">
                            <path d="M4,7 L7.34390953,3.7447942 L8.4482584,2.66987943 C9.07208907,2.06259709 9.18396708,1.18630788 8.69644756,0.711720764 L8.26693886,0.295135652 C7.78056242,-0.178338712 6.88039449,-0.0709585092 6.25584941,0.537019295" id="Stroke-1"></path>
                            <line x1="5" y1="2" x2="3" y2="4" id="Stroke-3"></line>
                            <path d="M1.98106384,5 L0.580708791,7.907528 L0,9 L1.1754882,8.37040896 L3.81708199,7.00807502 C3.50936945,7.14170357 4,6.9143006 4,6.9143006 C3.35235716,7.23508726 1.58866461,5.86246418 1.98106384,5 Z" id="Stroke-5"></path>
                        </g>
                    </g>
                </g>
            </g>
        </g>
    </g>
</svg>