<svg xmlns="http://www.w3.org/2000/svg" xmlns:xlink="http://www.w3.org/1999/xlink" width="16" height="14" viewBox="0 0 16 14">
    <defs>
        <path id="prefix__a" d="M8 11.636c-2.005 0-3.636-1.63-3.636-3.636 0-2.005 1.63-3.636 3.636-3.636 2.005 0 3.636 1.63 3.636 3.636 0 2.005-1.63 3.636-3.636 3.636m5.984-9.47h-1.658v-.94c0-.673-.57-1.226-1.263-1.226H4.936c-.693 0-1.261.553-1.261 1.227v.94H2.016C.906 2.167 0 3.05 0 4.127v7.002c0 1.08.907 1.962 2.016 1.962h11.968c1.11 0 2.016-.882 2.016-1.962V4.127c0-1.078-.907-1.96-2.016-1.96"/>
    </defs>
    <g fill="none" fill-rule="evenodd">
        <use fill="#00AFB8" xlink:href="#prefix__a"/>
        <use fill="#A9A9A9" xlink:href="#prefix__a"/>
        <path fill="#A9A9A9" d="M8 5.818c-1.203 0-2.182.978-2.182 2.182s.98 2.182 2.182 2.182c1.203 0 2.182-.978 2.182-2.182S9.202 5.818 8 5.818"/>
    </g>
</svg>
