<svg xmlns="http://www.w3.org/2000/svg" width="28" height="28" viewBox="0 0 28 28">
    <g fill="none" fill-rule="evenodd" stroke-linecap="round" stroke-linejoin="round">
        <g stroke="#00AFB8" stroke-width="1.5">
            <g>
                <g>
                    <g>
                        <g>
                            <g>
                                <path d="M20.757 13.263l.209.942c.123.38-.102.795-.432.795H.466c-.33 0-.555-.415-.432-.795L3.344 0H9.5M6 4L10 4M5 7L9 7" transform="translate(-448.000000, -162.000000) translate(220.000000, 80.000000) translate(50.000000, 82.000000) translate(178.000000, 0.000000) translate(4.000000, 5.000000) translate(0.000000, 2.000000)"/>
                            </g>
                            <g>
                                <path d="M6.3 6.409V3.155c.815-.314 1.35-.833 1.35-1.422C7.65.776 6.24 0 4.5 0S1.35.776 1.35 1.733c0 .589.535 1.108 1.35 1.422v3.254c0 .83-.581 1.537-1.406 1.78C.494 8.422 0 8.744 0 9.1v2.6c0 .718 2.015 1.3 4.5 1.3S9 12.418 9 11.7V9.1c0-.355-.494-.677-1.294-.912-.825-.242-1.406-.95-1.406-1.78zM6 2.843c-.567.198-1.257.314-2 .314" transform="translate(-448.000000, -162.000000) translate(220.000000, 80.000000) translate(50.000000, 82.000000) translate(178.000000, 0.000000) translate(4.000000, 5.000000) translate(12.000000, 0.000000)"/>
                                <path d="M2 9.729c.743.168 1.744.271 2.845.271C7.139 10 8 9.552 8 9" transform="translate(-448.000000, -162.000000) translate(220.000000, 80.000000) translate(50.000000, 82.000000) translate(178.000000, 0.000000) translate(4.000000, 5.000000) translate(12.000000, 0.000000)"/>
                            </g>
                        </g>
                    </g>
                </g>
            </g>
        </g>
    </g>
</svg>
