<svg xmlns="http://www.w3.org/2000/svg" width="16" height="17" viewBox="0 0 16 17">
    <g fill="none" fill-rule="evenodd">
        <g fill="#39C8D0">
            <g>
                <g>
                    <g>
                        <path d="M10.777 1.25c.988 0 1.811.755 1.887 1.716l.006.146-.001.101h.754l.169.006c1.281.082 2.318 1.091 2.402 2.355L16 5.74v6.346c0 1.341-1.07 2.437-2.408 2.522l-.169.006H2.577c-1.358 0-2.484-1.042-2.571-2.362L0 12.086V5.74C0 4.4 1.071 3.304 2.408 3.219l.169-.006h.753v-.1c0-.982.776-1.783 1.746-1.857l.147-.006h5.554zm0 1.5H5.223c-.191 0-.349.13-.385.291l-.008.071v.851c0 .38-.282.694-.648.744l-.102.006H2.577c-.556 0-1.012.408-1.07.916l-.007.11v6.347c0 .522.42.965.96 1.022l.117.006h10.846c.556 0 1.012-.408 1.07-.917l.007-.111V5.74c0-.521-.42-.964-.96-1.02l-.117-.007H11.92c-.38 0-.694-.282-.743-.648l-.007-.102v-.85c0-.17-.134-.32-.314-.355l-.08-.008zM8 4.75c2.068 0 3.75 1.682 3.75 3.75 0 2.002-1.575 3.641-3.551 3.745L8 12.25l-.199-.005C5.825 12.14 4.25 10.502 4.25 8.5 4.25 6.43 5.932 4.75 8 4.75zm0 1.5c-1.24 0-2.25 1.01-2.25 2.25 0 1.188.928 2.165 2.096 2.245L8 10.75l.154-.005c1.117-.076 2.015-.973 2.09-2.09l.006-.154C10.25 7.26 9.24 6.25 8 6.25z" transform="translate(-219 -1814) translate(203 1804) translate(16 8) translate(0 3)"/>
                    </g>
                </g>
            </g>
        </g>
    </g>
</svg>
