<svg width="24" height="24" viewBox="0 0 24 24" xmlns="http://www.w3.org/2000/svg" xmlns:xlink="http://www.w3.org/1999/xlink">
    <defs>
        <path d="M20.842 20.033a.537.537 0 0 1 .158.396c0 .158-.053.29-.158.395a.553.553 0 0 1-.403.176.553.553 0 0 1-.403-.176l-5.433-5.484c-.62.539-1.32.96-2.103 1.265a6.8 6.8 0 0 1-2.49.457 6.81 6.81 0 0 1-2.733-.553 7.185 7.185 0 0 1-2.235-1.503 6.91 6.91 0 0 1-1.499-2.233A6.96 6.96 0 0 1 3 10.031c0-.972.181-1.886.543-2.742a6.91 6.91 0 0 1 1.499-2.232 7.185 7.185 0 0 1 2.235-1.503A6.81 6.81 0 0 1 10.01 3c.958 0 1.863.185 2.716.554a7.028 7.028 0 0 1 3.742 3.735c.368.856.552 1.77.552 2.742 0 .856-.146 1.667-.438 2.435a7.304 7.304 0 0 1-1.192 2.065l5.451 5.502zm-10.831-4.078c.806 0 1.568-.155 2.287-.466a5.882 5.882 0 0 0 1.875-1.274 6.11 6.11 0 0 0 1.262-1.881 5.73 5.73 0 0 0 .465-2.303 5.73 5.73 0 0 0-.465-2.302 6.11 6.11 0 0 0-1.262-1.881 5.882 5.882 0 0 0-1.875-1.275 5.704 5.704 0 0 0-2.287-.466c-.818 0-1.586.156-2.305.466A5.882 5.882 0 0 0 5.83 5.848a6.11 6.11 0 0 0-1.262 1.88 5.73 5.73 0 0 0-.465 2.303c0 .82.155 1.588.465 2.303a6.11 6.11 0 0 0 1.262 1.88c.531.54 1.156.965 1.875 1.275.719.31 1.487.466 2.305.466z" id="os6vf2z01a"/>
    </defs>
    <g fill="none" fill-rule="evenodd">
        <mask id="bhz2kgda0b" fill="#fff">
            <use xlink:href="#os6vf2z01a"/>
        </mask>
        <use stroke="#a9a9a9" xlink:href="#os6vf2z01a"/>
        <g mask="url(#bhz2kgda0b)" fill="#a9a9a9">
            <path d="M0 0h24v24H0z"/>
        </g>
    </g>
</svg>
