<svg xmlns="http://www.w3.org/2000/svg" width="16" height="16" viewBox="0 0 16 16">
    <g fill="none" fill-rule="evenodd">
        <path stroke="#7E7E7E" stroke-linecap="round" stroke-linejoin="round" stroke-width="1.5" d="M14.635 5.356c.326.817.505 1.71.505 2.644 0 1.894-.752 3.71-2.091 5.049C11.71 14.389 9.894 15.14 8 15.14c-3.26 0-6.105-2.208-6.915-5.365-.81-3.157.62-6.462 3.477-8.032 2.856-1.57 6.413-1.006 8.644 1.37"/>
        <path fill="#7E7E7E" fill-rule="nonzero" d="M8.26 6.25c.414 0 .75.336.75.75v4c0 .414-.336.75-.75.75s-.75-.336-.75-.75V7c0-.414.336-.75.75-.75zm.12-2.239c.262.044.48.224.573.474.092.249.043.528-.128.732-.17.203-.438.3-.699.252-.4-.073-.666-.455-.597-.855.07-.4.45-.67.851-.603z"/>
    </g>
</svg>
