<svg width="28" height="28" viewBox="0 0 28 28" xmlns="http://www.w3.org/2000/svg">
    <g stroke="#7E7E7E" fill="none" fill-rule="evenodd">
        <path d="m24.757 20.263.209.942c.123.38-.102.795-.432.795H4.466c-.33 0-.555-.415-.432-.795L7.344 7H22.5M10 11h4M9 14h4" stroke-width="1.5" stroke-linecap="round" stroke-linejoin="round"/>
        <path d="M19.98 14.575a.444.444 0 1 1-.628.628l-2.222-2.222a.453.453 0 0 1-.099-.151.443.443 0 0 1 .1-.478l-.05.058a.447.447 0 0 1 .04-.048l.01-.01 2.221-2.222a.444.444 0 1 1 .629.629l-1.465 1.463h4.262c1.174 0 2.135.91 2.216 2.064l.006.158v3.112a.444.444 0 0 1-.889 0v-3.112c0-.736-.597-1.333-1.333-1.333h-4.261z" stroke-width=".6" fill="#7E7E7E" fill-rule="nonzero"/>
    </g>
</svg>
