<svg xmlns="http://www.w3.org/2000/svg" width="20" height="20" viewBox="0 0 20 20">
    <g fill="none" fill-rule="evenodd" stroke-linecap="round" stroke-linejoin="round" stroke-width="2">
        <g stroke="#6D6E71">
            <path d="M4.445 4.148c1.144 0 2.074-.929 2.074-2.074C6.519.93 5.589 0 4.445 0 3.298 0 2.37.93 2.37 2.074c0 1.145.928 2.074 2.075 2.074zM9.481 8.684c-.436-1.005-1.25-1.674-2.707-1.758-.569.378-1.267.609-2.029.609-.763 0-1.46-.23-2.031-.61C1.248 7.012.434 7.689 0 8.705" transform="translate(2 6)"/>
        </g>
        <g stroke="#50C0C5">
            <path d="M7.111 8.704C6.675 7.687 5.86 7.01 4.401 6.926c-.57.382-1.268.616-2.03.616M2.074 4.148c1.145 0 2.074-.929 2.074-2.074C4.148.93 3.218 0 2.074 0 1.882 0 1.237.119.83.468.294.924 0 1.676 0 2.074 0 3.22.928 4.148 2.074 4.148z" transform="translate(11 4)"/>
        </g>
    </g>
</svg>
