<svg width="36" height="36" viewBox="0 0 36 36" xmlns="http://www.w3.org/2000/svg">
    <defs>
        <clipPath id="2ydpmpl13a">
            <path d="M1440 0v1382H0V0h1440z"/>
        </clipPath>
        <clipPath id="irhuzll7ob">
            <path d="M15.016 4.5c1.437 0 2.796.277 4.075.83a10.778 10.778 0 0 1 3.352 2.255c.955.95 1.709 2.065 2.261 3.349.552 1.283.828 2.654.828 4.113 0 1.283-.219 2.5-.657 3.652a10.956 10.956 0 0 1-1.788 3.098l8.176 8.253a.806.806 0 0 1 .237.593.806.806 0 0 1-.237.593.83.83 0 0 1-.604.264.83.83 0 0 1-.605-.264l-8.15-8.226a10.644 10.644 0 0 1-3.155 1.898 10.201 10.201 0 0 1-3.733.686c-1.455 0-2.822-.277-4.101-.83a10.778 10.778 0 0 1-3.352-2.255 10.365 10.365 0 0 1-2.248-3.349 10.44 10.44 0 0 1-.815-4.113c0-1.46.272-2.83.815-4.113a10.365 10.365 0 0 1 2.248-3.349c.955-.95 2.072-1.7 3.352-2.254 1.28-.554 2.646-.831 4.101-.831zm0 1.661a8.62 8.62 0 0 0-3.457.699A8.823 8.823 0 0 0 8.746 8.77a9.165 9.165 0 0 0-1.893 2.822 8.596 8.596 0 0 0-.697 3.454c0 1.23.233 2.382.697 3.454a9.165 9.165 0 0 0 1.893 2.821 8.823 8.823 0 0 0 2.813 1.912 8.62 8.62 0 0 0 3.457.699c1.21 0 2.353-.233 3.43-.7a8.823 8.823 0 0 0 2.814-1.91 9.165 9.165 0 0 0 1.893-2.822 8.596 8.596 0 0 0 .697-3.454c0-1.23-.233-2.382-.697-3.454A9.165 9.165 0 0 0 21.26 8.77a8.823 8.823 0 0 0-2.813-1.911 8.556 8.556 0 0 0-3.43-.699z"/>
        </clipPath>
        <clipPath id="htb2sya3zc">
            <path d="M36 0v36H0V0h36z"/>
        </clipPath>
    </defs>
    <g clip-path="url(#2ydpmpl13a)" transform="translate(-127 -199)">
        <path d="M158.263 229.05a.806.806 0 0 1 .237.593.806.806 0 0 1-.237.593.83.83 0 0 1-.604.264.83.83 0 0 1-.605-.264l-8.15-8.226a10.644 10.644 0 0 1-3.155 1.898 10.201 10.201 0 0 1-3.733.686c-1.455 0-2.822-.277-4.101-.83a10.778 10.778 0 0 1-3.352-2.255 10.365 10.365 0 0 1-2.248-3.349 10.44 10.44 0 0 1-.815-4.113c0-1.46.272-2.83.815-4.113a10.365 10.365 0 0 1 2.248-3.349c.955-.95 2.072-1.7 3.352-2.254 1.28-.554 2.646-.831 4.101-.831 1.437 0 2.796.277 4.075.83a10.778 10.778 0 0 1 3.352 2.255c.955.95 1.709 2.065 2.261 3.349.552 1.283.828 2.654.828 4.113 0 1.283-.219 2.5-.657 3.652a10.956 10.956 0 0 1-1.788 3.098l8.176 8.253zm-16.247-6.117c1.21 0 2.353-.233 3.43-.7a8.823 8.823 0 0 0 2.814-1.91 9.165 9.165 0 0 0 1.893-2.822 8.596 8.596 0 0 0 .697-3.454c0-1.23-.233-2.382-.697-3.454a9.165 9.165 0 0 0-1.893-2.822 8.823 8.823 0 0 0-2.813-1.911 8.556 8.556 0 0 0-3.43-.699 8.62 8.62 0 0 0-3.458.699 8.823 8.823 0 0 0-2.813 1.911 9.165 9.165 0 0 0-1.893 2.822 8.596 8.596 0 0 0-.697 3.454c0 1.23.233 2.382.697 3.454a9.165 9.165 0 0 0 1.893 2.821 8.823 8.823 0 0 0 2.813 1.912 8.62 8.62 0 0 0 3.457.699z" stroke="#00AFB8" fill="none" stroke-miterlimit="10"/>
        <g clip-path="url(#irhuzll7ob)" transform="translate(127 199)">
            <g clip-path="url(#htb2sya3zc)">
                <path fill="#00AFB8" d="M4.5 4.5h27v27h-27v-27z"/>
            </g>
        </g>
    </g>
</svg>
