<svg width="28" height="28" viewBox="0 0 28 28" xmlns="http://www.w3.org/2000/svg">
    <g stroke="#7E7E7E" stroke-width="1.5" fill="none" fill-rule="evenodd" stroke-linecap="round" stroke-linejoin="round">
        <path d="M21 8.881a5.767 5.767 0 0 1-2 .338"/>
        <path d="M21.3 12.902V9.397c.815-.337 1.35-.897 1.35-1.53C22.65 6.836 21.24 6 19.5 6s-3.15.836-3.15 1.867c0 .633.535 1.193 1.35 1.53v3.505c0 .894-.581 1.656-1.406 1.916-.8.253-1.294.6-1.294.982v2.8c0 .773 2.015 1.4 4.5 1.4s4.5-.627 4.5-1.4v-2.8c0-.383-.494-.73-1.294-.982a2.006 2.006 0 0 1-1.406-1.916z"/>
        <path d="M17 16.729c.743.168 1.744.271 2.845.271C22.139 17 24 16.552 24 16"/>
        <path d="m24.757 21.263.209.942c.123.38-.102.795-.432.795H4.466c-.33 0-.555-.415-.432-.795L7.344 12H14.5M9 15h4M8 18.765h4"/>
    </g>
</svg>
