<svg width="24" height="24" xmlns="http://www.w3.org/2000/svg" xmlns:xlink="http://www.w3.org/1999/xlink">
    <defs>
        <path d="M20.94 20.847a1.072 1.072 0 0 1-1.06-1.06V18.15A9.999 9.999 0 0 1 12 21.999a9.999 9.999 0 0 1-9.907-8.756l-.07-.507h2.12l.046.393c.577 3.848 3.918 6.75 7.811 6.75 2.765 0 5.345-1.497 6.774-3.848h-2.649a1.072 1.072 0 0 1-1.06-1.06c0-.576.483-1.06 1.059-1.06h4.84c.506 0 1.036.322 1.036 1.06v4.816a1.07 1.07 0 0 1-1.06 1.06zm-10.458-7.959a.966.966 0 0 1-.003-.06V7.882a.95.95 0 1 1 1.901 0V12h2.117c.473 0 .86.425.86.95 0 .525-.387.95-.862.95H11.34c-.475 0-.86-.425-.86-.95 0-.021 0-.041.002-.063v.001zm9.376-1.626-.047-.392C19.235 7.022 15.894 4.119 12 4.119c-2.764 0-5.345 1.498-6.774 3.849h2.629c.575 0 1.06.484 1.06 1.059a1.072 1.072 0 0 1-1.06 1.06H3.06C2.62 10.062 2 9.788 2 9.027V4.21c0-.576.485-1.06 1.06-1.06.577 0 1.061.484 1.061 1.06v1.636A9.996 9.996 0 0 1 12 2a9.999 9.999 0 0 1 9.907 8.757l.07.505h-2.119z" id="a"/>
    </defs>
    <g fill="none" fill-rule="evenodd">
        <mask id="b" fill="#fff">
            <use xlink:href="#a"/>
        </mask>
        <use fill="#A9A9A9" fill-rule="nonzero" xlink:href="#a"/>
        <g mask="url(#b)" fill="#00AFB8">
            <path d="M0 0h24v24H0z"/>
        </g>
    </g>
</svg>
