<?xml version="1.0" encoding="UTF-8"?>
<svg width="24px" height="24px" viewBox="0 0 24 24" version="1.1" xmlns="http://www.w3.org/2000/svg" xmlns:xlink="http://www.w3.org/1999/xlink">
    <title>icon/icon_link</title>
    <defs>
        <path d="M14.5,8.66666667 L17,8.66666667 C17.884055,8.66666667 18.7319013,9.01785613 19.3570226,9.6429774 C19.9821439,10.2680987 20.3333333,11.115945 20.3333333,12 C20.3333333,13.8409492 18.8409492,15.3333333 17,15.3333333 L14.5,15.3333333 C14.0397627,15.3333333 13.6666667,15.7064294 13.6666667,16.1666667 C13.6666667,16.626904 14.0397627,17 14.5,17 L17,17 C19.7614237,17 22,14.7614237 22,12 C22,10.6739176 21.4732158,9.40214799 20.5355339,8.46446609 C19.597852,7.5267842 18.3260824,7 17,7 L14.5,7 C14.0397627,7 13.6666667,7.37309604 13.6666667,7.83333333 C13.6666667,8.29357062 14.0397627,8.66666667 14.5,8.66666667 Z M9.5,7 C9.96023729,7 10.3333333,7.37309604 10.3333333,7.83333333 C10.3333333,8.29357062 9.96023729,8.66666667 9.5,8.66666667 L9.5,8.66666667 L7,8.66666667 C5.15905083,8.66666667 3.66666667,10.1590508 3.66666667,12 C3.66666667,12.884055 4.01785613,13.7319013 4.6429774,14.3570226 C5.26809866,14.9821439 6.11594503,15.3333333 7,15.3333333 L7,15.3333333 L9.5,15.3333333 C9.96023729,15.3333333 10.3333333,15.7064294 10.3333333,16.1666667 C10.3333333,16.626904 9.96023729,17 9.5,17 L9.5,17 L7,17 C5.67391755,17 4.40214799,16.4732158 3.46446609,15.5355339 C2.5267842,14.597852 2,13.3260824 2,12 C2,9.23857625 4.23857625,7 7,7 L7,7 Z M15.3333333,11.1666667 C15.7935706,11.1666667 16.1666667,11.5397627 16.1666667,12 C16.1666667,12.4602373 15.7935706,12.8333333 15.3333333,12.8333333 L15.3333333,12.8333333 L8.66666667,12.8333333 C8.20642938,12.8333333 7.83333333,12.4602373 7.83333333,12 C7.83333333,11.5397627 8.20642938,11.1666667 8.66666667,11.1666667 L8.66666667,11.1666667 Z" id="path-1"></path>
    </defs>
    <g id="icon/icon_link" stroke="none" stroke-width="1" fill="none" fill-rule="evenodd">
        <mask id="mask-2" fill="white">
            <use xlink:href="#path-1"></use>
        </mask>
        <use id="Combined-Shape" fill="#00AFB8" fill-rule="nonzero" transform="translate(12.000000, 12.000000) rotate(45.000000) translate(-12.000000, -12.000000) " xlink:href="#path-1"></use>
    </g>
</svg>