<svg xmlns="http://www.w3.org/2000/svg" width="32" height="20" viewBox="0 0 32 20">
    <g fill="none" fill-rule="evenodd" stroke-linecap="round" stroke-linejoin="round" stroke-width="2">
        <path stroke="#6D6E71" d="M7.5 7C9.432 7 11 5.432 11 3.5 11 1.57 9.432 0 7.5 0 5.565 0 4 1.569 4 3.5 4 5.433 5.565 7 7.5 7zM16 12.967c-.736-1.697-2.11-2.825-4.568-2.967-.96.638-2.139 1.027-3.424 1.027-1.29 0-2.464-.389-3.428-1.027-2.473.143-3.848 1.286-4.58 3" transform="translate(3 4)"/>
        <path stroke="#50C0C5" d="M27 13c-.737-1.716-2.113-2.857-4.572-3-.962.645-2.141 1.039-3.428 1.039M18.5 7C20.432 7 22 5.432 22 3.5 22 1.57 20.432 0 18.5 0c-.324 0-1.412.2-2.101.79C15.496 1.56 15 2.828 15 3.5 15 5.433 16.565 7 18.5 7z" transform="translate(3 4)"/>
    </g>
</svg>
