<svg xmlns="http://www.w3.org/2000/svg" width="28" height="28" viewBox="0 0 28 28">
    <g fill="none" fill-rule="evenodd">
        <g stroke="#00AFB8">
            <g>
                <g>
                    <g>
                        <g>
                            <path stroke-linecap="round" stroke-linejoin="round" stroke-width="1.5" d="M20.757 13.263l.209.942c.123.38-.102.795-.432.795H.466c-.33 0-.555-.415-.432-.795L3.344 0H18.5M6 4L10 4M5 7L9 7" transform="translate(-570.000000, -162.000000) translate(220.000000, 80.000000) translate(50.000000, 82.000000) translate(300.000000, 0.000000) translate(4.000000, 7.000000)"/>
                            <path fill="#00AFB8" fill-rule="nonzero" stroke-width=".6" d="M18.02 7.575c-.175.173-.175.455 0 .628.173.174.454.174.628 0h0l2.222-2.222.007-.008c.014-.014.028-.03.04-.048l.016-.023c.01-.016.02-.033.027-.051l.009-.021c.02-.05.031-.106.031-.163 0-.058-.011-.113-.031-.164l-.008-.018c-.009-.02-.019-.038-.03-.056-.017-.027-.038-.053-.061-.077l.049.058c-.012-.017-.025-.033-.04-.048l-.01-.01-2.221-2.222c-.174-.173-.455-.173-.629 0-.174.174-.174.455 0 .629h0l1.465 1.463h-4.262c-1.174 0-2.135.91-2.216 2.064L13 7.444v3.112c0 .245.199.444.444.444.246 0 .445-.199.445-.444h0V7.444c0-.736.597-1.333 1.333-1.333h4.261z" transform="translate(-570.000000, -162.000000) translate(220.000000, 80.000000) translate(50.000000, 82.000000) translate(300.000000, 0.000000) translate(4.000000, 7.000000)"/>
                        </g>
                    </g>
                </g>
            </g>
        </g>
    </g>
</svg>
