<svg xmlns="http://www.w3.org/2000/svg" xmlns:xlink="http://www.w3.org/1999/xlink" width="24" height="24" viewBox="0 0 24 24">
    <defs>
        <path id="k1ltwf5lua" d="M20.94 20.847c-.582-.006-1.053-.477-1.06-1.06V18.15c-1.894 2.428-4.8 3.848-7.88 3.849-5.036-.007-9.281-3.759-9.907-8.756l-.07-.507h2.12l.046.393c.577 3.848 3.918 6.75 7.811 6.75 2.765 0 5.345-1.497 6.774-3.848h-2.649c-.583-.006-1.054-.477-1.06-1.06 0-.576.483-1.06 1.059-1.06h4.84c.506 0 1.036.322 1.036 1.06v4.816c-.006.583-.477 1.054-1.06 1.06zm-10.458-7.959l-.003-.06V7.882c0-.525.426-.95.95-.95.526 0 .951.425.951.95V12h2.117c.473 0 .86.425.86.95 0 .525-.387.95-.862.95H11.34c-.475 0-.86-.425-.86-.95 0-.021 0-.041.002-.063v.001zm9.376-1.626l-.047-.392C19.235 7.022 15.894 4.119 12 4.119c-2.764 0-5.345 1.498-6.774 3.849h2.629c.575 0 1.06.484 1.06 1.059-.007.583-.477 1.054-1.06 1.06H3.06C2.62 10.062 2 9.788 2 9.027V4.21c0-.576.485-1.06 1.06-1.06.577 0 1.061.484 1.061 1.06v1.636C6.015 3.42 8.921 2.001 12 2c5.037.007 9.282 3.76 9.907 8.757l.07.505h-2.119z"/>
    </defs>
    <g fill="none" fill-rule="evenodd">
        <g>
            <g>
                <g transform="translate(-270 -695) translate(220 147) translate(50 548)">
                    <mask id="7ohtieeo1b" fill="#fff">
                        <use xlink:href="#k1ltwf5lua"/>
                    </mask>
                    <use fill="#A9A9A9" fill-rule="nonzero" xlink:href="#k1ltwf5lua"/>
                    <g fill="#A9A9A9" mask="url(#7ohtieeo1b)">
                        <path d="M0 0H24V24H0z"/>
                    </g>
                </g>
            </g>
        </g>
    </g>
</svg>
