<svg xmlns="http://www.w3.org/2000/svg" xmlns:xlink="http://www.w3.org/1999/xlink" width="24" height="24" viewBox="0 0 24 24">
    <defs>
        <path id="apr58rxz1a" d="M12.002 11.755c.414 0 .75.336.75.75l-.001 4.935 1.72-1.717c.265-.267.682-.29.975-.073l.084.073c.293.292.293.767 0 1.06l-2.998 2.998c-.025.025-.052.048-.08.07l-.02.015-.067.041-.036.019-.048.02c-.019.008-.037.015-.055.02l-.043.013c-.018.004-.037.008-.055.01-.041.008-.083.012-.126.012l.076-.004-.048.003H11.972l-.048-.003-.047-.007c-.02-.003-.04-.007-.059-.012l-.038-.01-.057-.021-.049-.022-.035-.018c-.022-.012-.044-.026-.064-.04-.036-.025-.07-.054-.103-.086l.078.068c-.027-.02-.054-.043-.078-.068l-2.999-2.998c-.292-.293-.292-.768 0-1.06.293-.293.768-.293 1.06 0l1.719 1.718v-4.936c0-.38.282-.693.648-.743zM3.764 8.628c1.292-2.478 3.978-3.903 6.754-3.584 2.58.298 4.742 2.044 5.592 4.462h.389c1.962-.001 3.698 1.27 4.29 3.14.593 1.87-.095 3.908-1.7 5.037-.338.238-.806.156-1.044-.182-.238-.339-.157-.806.182-1.044 1.07-.753 1.529-2.112 1.133-3.359-.395-1.247-1.552-2.093-2.86-2.092h-.945c-.342 0-.641-.232-.726-.564-.54-2.105-2.323-3.66-4.482-3.908-2.16-.249-4.249.86-5.254 2.787-1.004 1.927-.717 4.275.724 5.903.274.31.245.783-.065 1.058-.31.274-.783.245-1.058-.065-1.852-2.093-2.222-5.11-.93-7.589z"/>
    </defs>
    <g fill="none" fill-rule="evenodd">
        <g>
            <g>
                <g>
                    <g transform="translate(-1072 -878) translate(220 626) translate(50 252) translate(802)">
                        <mask id="pvirfmt0qb" fill="#00afb8">
                            <use xlink:href="#apr58rxz1a"/>
                        </mask>
                        <use fill="#00afb8" fill-rule="nonzero" xlink:href="#apr58rxz1a"/>
                        <g fill="#00afb8" mask="url(#pvirfmt0qb)">
                            <path d="M0 0H24V24H0z"/>
                        </g>
                    </g>
                </g>
            </g>
        </g>
    </g>
</svg>
