<svg width="24" height="24" xmlns="http://www.w3.org/2000/svg" xmlns:xlink="http://www.w3.org/1999/xlink">
    <defs>
        <path d="M21 17a1 1 0 0 1 0 2H3a1 1 0 0 1 0-2h18zm0-6a1 1 0 0 1 0 2H3a1 1 0 0 1 0-2h18zm0-6a1 1 0 0 1 0 2H3a1 1 0 1 1 0-2h18z" id="a"/>
    </defs>
    <g fill="none" fill-rule="evenodd">
        <mask id="b" fill="#fff">
            <use xlink:href="#a"/>
        </mask>
        <use fill="#4A4A4A" xlink:href="#a"/>
        <g mask="url(#b)" fill="#00AFB8">
            <path d="M0 0h24v24H0z"/>
        </g>
    </g>
</svg>
