<svg xmlns="http://www.w3.org/2000/svg" xmlns:xlink="http://www.w3.org/1999/xlink" width="16" height="16" viewBox="0 0 16 16">
    <defs>
        <path id="pmbsh2a0pa" d="M10 1.333c.223 0 .431.112.555.297l1.135 1.703H14c1.105 0 2 .896 2 2v7.334c0 1.104-.895 2-2 2H2c-1.105 0-2-.896-2-2V5.333c0-1.104.895-2 2-2h2.31L5.445 1.63c.124-.185.332-.297.555-.297h4zm-.357 1.334H6.357L5.22 4.37c-.123.185-.331.297-.554.297H2c-.368 0-.667.298-.667.666v7.334c0 .368.299.666.667.666h12c.368 0 .667-.298.667-.666V5.333c0-.368-.299-.666-.667-.666h-2.667c-.223 0-.43-.112-.554-.297L9.643 2.667zM8 5.333c1.84 0 3.333 1.493 3.333 3.334C11.333 10.507 9.841 12 8 12c-1.84 0-3.333-1.492-3.333-3.333 0-1.841 1.492-3.334 3.333-3.334zm0 1.334c-1.105 0-2 .895-2 2 0 1.104.895 2 2 2s2-.896 2-2c0-1.105-.895-2-2-2z"/>
    </defs>
    <g fill="none" fill-rule="evenodd">
        <g>
            <g transform="translate(-16 -11) translate(16 11)">
                <mask id="gb71d3nt1b" fill="#fff">
                    <use xlink:href="#pmbsh2a0pa"/>
                </mask>
                <use fill="#000" fill-rule="nonzero" xlink:href="#pmbsh2a0pa"/>
                <g fill="#A9A9A9" mask="url(#gb71d3nt1b)">
                    <path d="M0 0H16V16H0z"/>
                </g>
            </g>
        </g>
    </g>
</svg>
