<svg xmlns="http://www.w3.org/2000/svg" xmlns:xlink="http://www.w3.org/1999/xlink" width="24" height="24" viewBox="0 0 24 24">
    <defs>
        <path id="mktn3mgvea" d="M13.182 3c.108 0 .212.021.307.06l.022.01c.025.01.05.023.074.036l.02.012c.022.013.042.027.062.041l.024.019c.019.015.037.03.054.047l.015.015 5.728 5.727.02.022.027.03-.047-.052c.031.031.06.065.085.1l.03.046.019.03c.043.076.074.16.091.25.01.05.014.1.014.152v9c0 1.356-1.099 2.455-2.454 2.455H7.455C6.099 21 5 19.901 5 18.545V5.455C5 4.099 6.099 3 7.455 3zm-.819 1.636H7.455c-.452 0-.819.367-.819.819v13.09c0 .452.367.819.819.819h9.818c.452 0 .818-.367.818-.819l-.001-8.182h-4.908c-.417 0-.762-.311-.812-.715l-.006-.103-.001-4.909zm4.57 4.091L14 5.794v2.933h2.933z"/>
    </defs>
    <g fill="none" fill-rule="evenodd">
        <g>
            <g>
                <g transform="translate(-240.000000, -364.000000) translate(220.000000, 338.000000) translate(20.000000, 26.000000)">
                    <mask id="3lmruheq6b" fill="#fff">
                        <use xlink:href="#mktn3mgvea"/>
                    </mask>
                    <use fill="#000" fill-rule="nonzero" stroke="#00AFB8" stroke-width=".2" xlink:href="#mktn3mgvea"/>
                    <g fill="#00AFB8" mask="url(#3lmruheq6b)">
                        <path d="M0 0H24V24H0z"/>
                    </g>
                </g>
            </g>
        </g>
    </g>
</svg>
