<svg xmlns="http://www.w3.org/2000/svg" width="20" height="20" viewBox="0 0 20 20">
    <g fill="none" fill-rule="evenodd">
        <g>
            <g>
                <g>
                    <g>
                        <g transform="translate(-847 -1469) translate(221 621) translate(607 778) translate(19 69) translate(0 1)">
                            <rect width="20" height="20" fill="#95CF00" rx="10"/>
                            <g fill="#FFF">
                                <path d="M7.636 2.8c-.226 0-.409-.182-.409-.406 0-.225.183-.406.41-.406.225 0 .409.18.409.406 0 .224-.184.406-.41.406zm-3.272 0c-.226 0-.41-.182-.41-.406 0-.225.184-.406.41-.406.226 0 .409.18.409.406 0 .224-.183.406-.41.406zm5.454 1.626v5.961c0 .474-.386.859-.864.859h-.623c.021.071.034.146.034.225v1.717c0 .448-.367.812-.82.812-.451 0-.818-.364-.818-.812V11.47c0-.079.012-.154.033-.225H5.24c.021.071.033.146.033.225v1.717c0 .448-.367.812-.818.812-.452 0-.819-.364-.819-.812V11.47c0-.079.012-.154.033-.225h-.623c-.477 0-.864-.385-.864-.859V4.426h7.636zm-9 0c.452 0 .818.364.818.812v3.478c0 .449-.366.813-.817.813-.453 0-.819-.364-.819-.813V5.238c0-.448.366-.812.819-.812zm10.364 0c.452 0 .818.364.818.812v3.478c0 .449-.366.813-.818.813-.452 0-.818-.364-.818-.813V5.238c0-.448.366-.812.818-.812zM8.297.061c.04-.063.126-.08.188-.038.063.041.08.125.038.188l-.34.507-.152.225-.153.23c1.157.535 1.94 1.55 1.94 2.711H2.182c0-1.161.783-2.176 1.94-2.712L3.97.943 3.817.718 3.477.21c-.041-.063-.024-.147.038-.188.063-.041.148-.025.19.038l.365.543.153.228.155.232C4.87.874 5.42.768 6 .768c.58 0 1.13.106 1.622.296l.156-.232z" transform="translate(4 3)"/>
                            </g>
                        </g>
                    </g>
                </g>
            </g>
        </g>
    </g>
</svg>
