<svg xmlns="http://www.w3.org/2000/svg" width="20" height="20" viewBox="0 0 20 20">
    <g fill="none" fill-rule="evenodd">
        <g>
            <g>
                <g>
                    <g>
                        <g transform="translate(-847 -1443) translate(221 621) translate(607 778) translate(19 43) translate(0 1)">
                            <rect width="20" height="20" fill="#94959C" rx="10"/>
                            <path fill="#FFF" d="M7.954 2.273c.458-.59.805-1.423.68-2.273-.75.052-1.625.53-2.135 1.152-.466.564-.849 1.402-.7 2.216.82.026 1.664-.463 2.155-1.095zM12 10.272c-.328.727-.485 1.053-.907 1.697-.59.9-1.42 2.02-2.449 2.028-.914.01-1.15-.596-2.39-.589-1.24.007-1.5.601-2.415.592-1.029-.01-1.815-1.02-2.404-1.92C-.212 9.566-.385 6.615.63 5.045 1.353 3.931 2.492 3.28 3.563 3.28c1.09 0 1.775.599 2.678.599.875 0 1.408-.6 2.668-.6.954 0 1.965.52 2.685 1.42-2.359 1.295-1.977 4.67.406 5.574z" transform="translate(4 2)"/>
                        </g>
                    </g>
                </g>
            </g>
        </g>
    </g>
</svg>
