<svg xmlns="http://www.w3.org/2000/svg" width="28" height="29" viewBox="0 0 28 29">
    <g fill="none" fill-rule="evenodd" stroke="#7E7E7E" stroke-linecap="round" stroke-width="1.5">
        <path stroke-linejoin="round" d="M7.467 9.8l.742 10.407c.104 1.468 1.388 2.66 2.844 2.66h5.894c1.464 0 2.737-1.183 2.842-2.66L20.533 9.8"/>
        <path d="M11.667 13.033v6.1m4.666-6.1v6.1m4.16-9.333H7.507a1.2 1.2 0 0 1-1.198-1.197v-.43a1.2 1.2 0 0 1 1.198-1.197h12.986a1.2 1.2 0 0 1 1.199 1.197v.431a1.2 1.2 0 0 1-1.197 1.197l-.002-.001zm-8.92-3.157v-.075a2.428 2.428 0 0 1 4.856 0l-.002.073"/>
    </g>
</svg>
