<svg xmlns="http://www.w3.org/2000/svg" width="14" height="16" viewBox="0 0 14 16">
    <path fill="#7E7E7E" d="M5.66.764l.007.104v14.264c0 .415-.336.75-.75.75-.38 0-.694-.282-.743-.648l-.007-.101-.001-12.65-2.39 2.021c-.288.243-.705.233-.98-.009l-.077-.08c-.243-.287-.232-.704.01-.979l.079-.077L4.433.295c.46-.39 1.152-.102 1.227.469zM9.083.117c.38 0 .694.282.743.649l.007.101v12.649l2.391-2.02c.288-.244.705-.233.98.009l.077.08c.243.287.232.704-.01.978l-.079.078-3.625 3.064c-.46.39-1.152.102-1.227-.47l-.007-.103V.867c0-.414.336-.75.75-.75z"/>
</svg>
