<svg width="24" height="24" viewBox="0 0 24 24" xmlns="http://www.w3.org/2000/svg" xmlns:xlink="http://www.w3.org/1999/xlink">
    <defs>
        <path d="M3 5h18a1 1 0 0 1 0 2H3a1 1 0 1 1 0-2zm0 6h18a1 1 0 0 1 0 2H3a1 1 0 0 1 0-2zm0 6h18a1 1 0 0 1 0 2H3a1 1 0 0 1 0-2z" id="r9uclyj6ka"/>
    </defs>
    <g fill="none" fill-rule="evenodd">
        <mask id="zv59hfwynb" fill="#fff">
            <use xlink:href="#r9uclyj6ka"/>
        </mask>
        <use fill="#4A4A4A" xlink:href="#r9uclyj6ka"/>
        <g mask="url(#zv59hfwynb)" fill="#A9A9A9">
            <path d="M0 0h24v24H0z"/>
        </g>
    </g>
</svg>
