<svg width="24" height="24" viewBox="0 0 24 24" xmlns="http://www.w3.org/2000/svg" xmlns:xlink="http://www.w3.org/1999/xlink">
    <defs>
        <path d="M12.002 11.755a.75.75 0 0 1 .75.75l-.001 4.935 1.72-1.717a.75.75 0 0 1 .975-.073l.084.073a.75.75 0 0 1 0 1.06l-2.998 2.998a.754.754 0 0 1-.53.22l.076-.004a.754.754 0 0 1-.048.003h-.028a.763.763 0 0 1-.427-.133.747.747 0 0 1-.103-.086l.078.068a.754.754 0 0 1-.078-.068l-2.999-2.998a.75.75 0 0 1 1.06-1.06l1.719 1.718v-4.936a.75.75 0 0 1 .648-.743zM3.764 8.628a6.746 6.746 0 0 1 12.346.878h.389a4.497 4.497 0 0 1 2.59 8.177.75.75 0 0 1-.862-1.226 2.998 2.998 0 0 0-1.728-5.451h-.944a.75.75 0 0 1-.726-.564 5.247 5.247 0 1 0-9.012 4.782.75.75 0 0 1-1.123.993 6.746 6.746 0 0 1-.93-7.589z" id="50prnzrmra"/>
    </defs>
    <use fill="#DDD" fill-rule="nonzero" xlink:href="#50prnzrmra"/>
</svg>
