<svg width="24" height="24" viewBox="0 0 24 24" xmlns="http://www.w3.org/2000/svg" xmlns:xlink="http://www.w3.org/1999/xlink">
    <defs>
        <path d="m22.997 12.081-.008.068a1.083 1.083 0 0 1-.06.222l-.023.052a1.018 1.018 0 0 1-.102.172l-.025.03c.004-.002.002-.001.001 0l-.013.015-.01.013-.05.054-3 3a1 1 0 0 1-1.497-1.32l.083-.094L19.585 13H13v6.585l1.293-1.292a1 1 0 0 1 1.32-.083l.094.083a1 1 0 0 1 0 1.414l-3 3a1.006 1.006 0 0 1-.59.286l-.032.003a1.006 1.006 0 0 1-.052.003L12 23h-.032l-.054-.004L12 23a1.008 1.008 0 0 1-.595-.196.999.999 0 0 1-.112-.097l.09.08a1.006 1.006 0 0 1-.09-.08l-3-3a1 1 0 0 1 1.414-1.414L11 19.585V13H4.414l1.293 1.293a1 1 0 0 1 .083 1.32l-.083.094a1 1 0 0 1-1.32.083l-.094-.083-3-3-.073-.082-.004-.004a.954.954 0 0 1-.07-.1l-.021-.037c-.011-.02-.022-.04-.031-.06l-.023-.053a.988.988 0 0 1-.06-.223l-.008-.067-.002-.048v.021V11.981a1.002 1.002 0 0 1 .07-.352l.023-.052a1.018 1.018 0 0 1 .102-.172l.024-.031-.007.01c.025-.032.051-.063.08-.091l3-3a1 1 0 0 1 1.497 1.32l-.083.094L4.414 11H11V4.414L9.707 5.707a1 1 0 0 1-1.32.083l-.094-.083a1 1 0 0 1-.083-1.32l.083-.094 3-3 .082-.073.004-.004a.954.954 0 0 1 .1-.07l.037-.021c.02-.011.04-.022.06-.031l.053-.023a.988.988 0 0 1 .223-.06l.066-.008L12 1h.02a1.008 1.008 0 0 1 .351.071l.052.023a1.018 1.018 0 0 1 .172.102l.034.028-.008-.008.004.004.015.012.013.01.054.05 3 3a1 1 0 0 1-1.32 1.498l-.094-.083L13 4.414V11h6.585l-1.292-1.293a1 1 0 0 1-.083-1.32l.083-.094a1 1 0 0 1 1.32-.083l.094.083 3 3a1.006 1.006 0 0 1 .221.335l.022.06a1.067 1.067 0 0 1 .043.195l.003.03.003.055L23 12l-.001.019-.002.062z" id="9sqsx8f88a"/>
    </defs>
    <g fill="none" fill-rule="evenodd">
        <mask id="zdswxucgeb" fill="#fff">
            <use xlink:href="#9sqsx8f88a"/>
        </mask>
        <use fill="#000" fill-rule="nonzero" xlink:href="#9sqsx8f88a"/>
        <g mask="url(#zdswxucgeb)" fill="#00AFB8">
            <path d="M0 0h24v24H0z"/>
        </g>
    </g>
</svg>
