<svg xmlns="http://www.w3.org/2000/svg" width="28" height="28" viewBox="0 0 28 28">
    <g fill="#7E7E7E">
        <path d="M8.643 8.643H15.714V10.214H8.643zM7.857 11.786H10.214V13.357H7.857zM11.786 11.786H14.143V13.357H11.786z" transform="translate(5 3)"/>
        <path d="M.686 22h12.05c1.272 0 2.308-1.038 2.308-2.313v-1.123h1.506c1.272 0 2.307-1.037 2.307-2.313V5.544c0-.195-.083-.37-.213-.495l.002-.002L13.594.191c-.057-.054-.122-.094-.191-.125-.02-.01-.04-.014-.06-.021-.06-.02-.119-.033-.181-.037-.015 0-.028-.008-.043-.008H4.5c-.378 0-.685.308-.685.688v2.748H.686c-.378 0-.686.308-.686.688v17.188c0 .38.308.688.686.688zM13.805 2.3l2.658 2.556H14.74c-.516 0-.935-.42-.935-.937V2.3zm-8.618-.924h7.245v2.543c0 1.275 1.035 2.313 2.308 2.313h2.744V16.25c0 .516-.42.937-.934.937H5.187V1.376zM1.373 4.812h2.44v13.064c0 .38.308.688.687.688h9.17v1.123c0 .516-.419.937-.935.937H1.373V4.812z" transform="translate(5 3)"/>
    </g>
</svg>
