<svg xmlns="http://www.w3.org/2000/svg" xmlns:xlink="http://www.w3.org/1999/xlink" width="24" height="24" viewBox="0 0 24 24">
    <defs>
        <path id="htxp06fu1a" d="M9.824 4.636c.452 0 .818.367.818.819 0 .451-.366.818-.818.818h-4.37c-.451 0-.818.366-.818.818v11.454c0 .452.367.819.819.819h11.454c.452 0 .818-.367.818-.819v-4.369c0-.452.367-.818.818-.818.452 0 .819.366.819.818v4.37c0 1.355-1.1 2.454-2.455 2.454H5.455C4.099 21 3 19.901 3 18.545V7.091c0-1.356 1.099-2.455 2.455-2.455zm7.664-1.396l3.272 3.272c.32.32.32.838 0 1.157l-8.181 8.182c-.154.154-.362.24-.579.24H8.727c-.452 0-.818-.366-.818-.818V12c0-.217.086-.425.24-.579L16.33 3.24c.32-.32.837-.32 1.157 0zm-.579 1.735L9.545 12.34v2.116h2.116l7.364-7.364-2.116-2.116z"/>
    </defs>
    <g fill="none" fill-rule="evenodd">
        <mask id="sjptju20jb" fill="#fff">
            <use xlink:href="#htxp06fu1a"/>
        </mask>
        <use fill="#000" fill-rule="nonzero" stroke="#00AFB8" stroke-width=".2" xlink:href="#htxp06fu1a"/>
        <g fill="#00AFB8" mask="url(#sjptju20jb)">
            <path d="M0 0H24V24H0z"/>
        </g>
    </g>
</svg>
