<svg xmlns="http://www.w3.org/2000/svg" width="24" height="24" viewBox="0 0 24 24">
    <g fill="none" fill-rule="evenodd">
        <g>
            <g>
                <g>
                    <g fill="#7E7E7E" fill-rule="nonzero">
                        <g>
                            <path d="M1.455.017c.443.074.812.38.968.8.155.421.073.893-.216 1.237-.288.344-.739.506-1.18.426C.35 2.357-.1 1.712.018 1.036.137.359.779-.096 1.455.017M0 5.227v6.546C0 12.45.56 13 1.25 13s1.25-.55 1.25-1.227V5.227C2.5 4.55 1.94 4 1.25 4S0 4.55 0 5.227z" transform="translate(-410 -452) translate(360 209) translate(50 243) translate(11 6)"/>
                        </g>
                    </g>
                    <path stroke="#7E7E7E" stroke-linecap="round" stroke-linejoin="round" stroke-width="2.5" d="M21.953 8.034c.489 1.225.757 2.565.757 3.966 0 2.84-1.128 5.565-3.136 7.574C17.565 21.582 14.84 22.71 12 22.71c-4.89 0-9.158-3.312-10.373-8.047-1.215-4.736.93-9.694 5.215-12.049C11.127.26 16.462 1.105 19.81 4.67" transform="translate(-410 -452) translate(360 209) translate(50 243)"/>
                </g>
            </g>
        </g>
    </g>
</svg>
