<?xml version="1.0" encoding="UTF-8"?>
<svg width="26px" height="26px" viewBox="0 0 26 26" version="1.1" xmlns="http://www.w3.org/2000/svg" xmlns:xlink="http://www.w3.org/1999/xlink">
    <!-- Generator: Sketch 49.3 (51167) - http://www.bohemiancoding.com/sketch -->
    <title>icon_behance</title>
    <desc>Created with Sketch.</desc>
    <defs></defs>
    <g id="Symbols" stroke="none" stroke-width="1" fill="none" fill-rule="evenodd">
        <g id="Behance" transform="translate(-6.000000, -11.000000)">
            <g id="經歷">
                <g id="icon_behance" transform="translate(0.000000, 5.000000)">
                    <rect id="Rectangle-path" x="0" y="0" width="37.8515625" height="38"></rect>
                    <path d="M31,9.57142857 L31,28.4285714 C31,29.8482143 29.8482143,31 28.4285714,31 L9.57142857,31 C8.15178571,31 7,29.8482143 7,28.4285714 L7,9.57142857 C7,8.15178571 8.15178571,7 9.57142857,7 L28.4285714,7 C29.8482143,7 31,8.15178571 31,9.57142857 Z" id="Path" stroke="#5E5E5E"></path>
                    <path d="M19.2517857,21.1053571 C19.2517857,23.1946429 17.5,24.0892857 15.6303571,24.1 L10.6428571,24.1 L10.6428571,13.8142857 L15.4910714,13.8142857 C17.2535714,13.8142857 18.7803571,14.3125 18.7803571,16.3589286 C18.7803571,17.3928571 18.2982143,17.9017857 17.3767857,18.3410714 C18.6410714,18.7 19.2517857,19.8142857 19.2517857,21.1053571 Z M16.9910714,20.9821429 C16.9910714,19.9267857 16.3642857,19.5142857 15.3678571,19.5089286 L12.9035714,19.5089286 L12.9035714,22.3428571 L15.3196429,22.3428571 C16.2410714,22.3428571 16.9910714,22.0160714 16.9910714,20.9821429 Z M16.5785714,16.5732143 C16.5785714,15.625 15.8446429,15.4 15.0303571,15.4 L12.9089286,15.4 L12.9089286,17.8 L15.1964286,17.8 C16.0053571,17.8 16.5785714,17.4464286 16.5785714,16.5732143 Z" id="Combined-Shape" fill="#5E5E5E" fill-rule="nonzero"></path>
                    <path d="M27.3571429,20.3125 C27.3571429,20.4410714 27.3464286,20.575 27.3410714,20.6982143 L21.9732143,20.6982143 C21.9732143,21.8875 22.6,22.5892857 23.8,22.5892857 C24.4214286,22.5892857 25.2196429,22.2571429 25.4178571,21.6196429 L27.2232143,21.6196429 C26.6660714,23.3285714 25.5142857,24.1267857 23.7357143,24.1267857 C21.3892857,24.1267857 19.9267857,22.5357143 19.9267857,20.2160714 C19.9267857,17.9767857 21.4642857,16.2732143 23.7357143,16.2732143 C26.0660714,16.2732143 27.3571429,18.1107143 27.3571429,20.3125 Z M23.6660714,17.8160714 C22.6857143,17.8160714 22.0321429,18.4267857 21.9678571,19.4071429 L25.3,19.4071429 C25.2089286,18.4160714 24.6946429,17.8160714 23.6660714,17.8160714 Z" id="Combined-Shape" fill="#5E5E5E"></path>
                    <polygon id="Path" fill="#5E5E5E" points="21.5553571 15.1964286 25.7232143 15.1964286 25.7232143 14.1839286 21.5553571 14.1839286"></polygon>
                </g>
            </g>
        </g>
    </g>
</svg>