<?xml version="1.0" encoding="UTF-8"?>
<svg width="27px" height="24px" viewBox="0 0 27 24" version="1.1" xmlns="http://www.w3.org/2000/svg" xmlns:xlink="http://www.w3.org/1999/xlink">
    <!-- Generator: Sketch 49.3 (51167) - http://www.bohemiancoding.com/sketch -->
    <title>icon_achievement</title>
    <desc>Created with Sketch.</desc>
    <defs></defs>
    <g id="Symbols" stroke="none" stroke-width="1" fill="none" fill-rule="evenodd">
        <g id="個人成就" transform="translate(-7.000000, -12.000000)">
            <g id="icon_achievement" transform="translate(2.000000, 5.000000)">
                <rect id="Rectangle-path" x="0" y="0" width="37.8515625" height="38"></rect>
                <path d="M29.9583333,10.7777778 L25.4444444,10.7777778 L25.4444444,9.04166667 C25.4444444,8.46440972 24.9800347,8 24.4027778,8 L12.5972222,8 C12.0199653,8 11.5555556,8.46440972 11.5555556,9.04166667 L11.5555556,10.7777778 L7.04166667,10.7777778 C6.46440972,10.7777778 6,11.2421875 6,11.8194444 L6,14.25 C6,15.7994792 6.9765625,17.3923611 8.68663194,18.6206597 C10.0538194,19.6059028 11.7161458,20.2309028 13.4609375,20.4305556 C14.8237847,22.6918403 16.4166667,23.625 16.4166667,23.625 L16.4166667,26.75 L14.3333333,26.75 C12.8012153,26.75 11.5555556,27.6484375 11.5555556,29.1805556 L11.5555556,29.7013889 C11.5555556,29.9878472 11.7899306,30.2222222 12.0763889,30.2222222 L24.9236111,30.2222222 C25.2100694,30.2222222 25.4444444,29.9878472 25.4444444,29.7013889 L25.4444444,29.1805556 C25.4444444,27.6484375 24.1987847,26.75 22.6666667,26.75 L20.5833333,26.75 L20.5833333,23.625 C20.5833333,23.625 22.1762153,22.6918403 23.5390625,20.4305556 C25.2881944,20.2309028 26.9505208,19.6059028 28.3133681,18.6206597 C30.0190972,17.3923611 31,15.7994792 31,14.25 L31,11.8194444 C31,11.2421875 30.5355903,10.7777778 29.9583333,10.7777778 Z" id="Combined-Shape" stroke="#5E5E5E" fill-rule="nonzero"></path>
                <path d="M10.3098958,16.3680556 C9.25086806,15.6041667 8.77777778,14.7534722 8.77777778,14.25 L8.77777778,13.5555556 L11.5642361,13.5555556 C11.6076389,14.9704861 11.8159722,16.2118056 12.1197917,17.296875 C11.4644097,17.0711806 10.8524306,16.7586806 10.3098958,16.3680556 Z" id="Shape" fill="#5E5E5E"></path>
                <path d="M28.2222222,14.25 C28.2222222,14.9487847 27.4539931,15.8168403 26.6901042,16.3680556 C26.1475694,16.7586806 25.53125,17.0711806 24.8758681,17.296875 C25.1796875,16.2118056 25.3880208,14.9704861 25.4314236,13.5555556 L28.2222222,13.5555556 L28.2222222,14.25 Z" id="Shape" fill="#5E5E5E"></path>
                <polygon id="Star" fill="#5E5E5E" points="18.5 17.8524306 15.8468027 19.2472989 16.3535183 16.2929203 14.2070366 14.2006177 17.1734013 13.7695797 18.5 11.0815972 19.8265987 13.7695797 22.7929634 14.2006177 20.6464817 16.2929203 21.1531973 19.2472989"></polygon>
            </g>
        </g>
    </g>
</svg>