<?xml version="1.0" encoding="UTF-8"?>
<svg width="24px" height="24px" viewBox="0 0 24 24" version="1.1" xmlns="http://www.w3.org/2000/svg" xmlns:xlink="http://www.w3.org/1999/xlink">
    <!-- Generator: Sketch 49.3 (51167) - http://www.bohemiancoding.com/sketch -->
    <title>icon_experience</title>
    <desc>Created with Sketch.</desc>
    <defs></defs>
    <g id="Symbols" stroke="none" stroke-width="1" fill="none" fill-rule="evenodd">
        <g id="經歷" transform="translate(-8.000000, -12.000000)">
            <g id="icon_experience" transform="translate(6.000000, 10.000000)">
                <g id="Icon-24px">
                    <path d="M22.1666667,3 C23.7261424,3 25,4.27385763 25,5.83333333 L25,22.1666667 C25,23.7261424 23.7261424,25 22.1666667,25 L5.83333333,25 C4.27385763,25 3,23.7261424 3,22.1666667 L3,5.83333333 C3,4.27385763 4.27385763,3 5.83333333,3 L22.1666667,3 Z" id="Shape" stroke="#5E5E5E"></path>
                    <polygon id="Path" fill="#5E5E5E" points="10.5 19.8333333 8.16666667 19.8333333 8.16666667 11.6666667 10.5 11.6666667"></polygon>
                    <polygon id="Path" fill="#5E5E5E" points="15.1666667 19.8333333 12.8333333 19.8333333 12.8333333 8.16666667 15.1666667 8.16666667"></polygon>
                    <polygon id="Path" fill="#5E5E5E" points="19.8333333 19.8333333 17.5 19.8333333 17.5 15.1666667 19.8333333 15.1666667"></polygon>
                    <polygon id="Shape" points="0 0 28 0 28 28 0 28"></polygon>
                </g>
            </g>
        </g>
    </g>
</svg>