<?xml version="1.0" encoding="UTF-8"?>
<svg width="21px" height="17px" viewBox="0 0 21 17" version="1.1" xmlns="http://www.w3.org/2000/svg" xmlns:xlink="http://www.w3.org/1999/xlink">
    <!-- Generator: Sketch 49.3 (51167) - http://www.bohemiancoding.com/sketch -->
    <title>icon_customize</title>
    <desc>Created with Sketch.</desc>
    <defs></defs>
    <g id="Symbols" stroke="none" stroke-width="1" fill="none" fill-rule="evenodd">
        <g id="自定義" transform="translate(-8.000000, -15.000000)">
            <g id="icon_customize" transform="translate(0.000000, 5.000000)">
                <rect id="Rectangle-path" x="0" y="0" width="37.8515625" height="38"></rect>
                <g id="Icon-24px" transform="translate(6.000000, 6.000000)">
                    <path d="M4.33333333,11.375 C3.43416667,11.375 2.70833333,12.1008333 2.70833333,13 C2.70833333,13.8991667 3.43416667,14.625 4.33333333,14.625 C5.2325,14.625 5.95833333,13.8991667 5.95833333,13 C5.95833333,12.1008333 5.2325,11.375 4.33333333,11.375 L4.33333333,11.375 Z M4.33333333,4.875 C3.43416667,4.875 2.70833333,5.60083333 2.70833333,6.5 C2.70833333,7.39916667 3.43416667,8.125 4.33333333,8.125 C5.2325,8.125 5.95833333,7.39916667 5.95833333,6.5 C5.95833333,5.60083333 5.2325,4.875 4.33333333,4.875 L4.33333333,4.875 Z M4.33333333,18.0591667 C3.53166667,18.0591667 2.8925,18.7091667 2.8925,19.5 C2.8925,20.2908333 3.5425,20.9408333 4.33333333,20.9408333 C5.12416667,20.9408333 5.77416667,20.2908333 5.77416667,19.5 C5.77416667,18.7091667 5.135,18.0591667 4.33333333,18.0591667 L4.33333333,18.0591667 Z M7.58333333,20.5833333 L22.75,20.5833333 L22.75,18.4166667 L7.58333333,18.4166667 L7.58333333,20.5833333 L7.58333333,20.5833333 Z M7.58333333,14.0833333 L22.75,14.0833333 L22.75,11.9166667 L7.58333333,11.9166667 L7.58333333,14.0833333 L7.58333333,14.0833333 Z M7.58333333,5.41666667 L7.58333333,7.58333333 L22.75,7.58333333 L22.75,5.41666667 L7.58333333,5.41666667 L7.58333333,5.41666667 Z" id="Shape" fill="#484848"></path>
                    <polygon id="Shape" points="0 0 26 0 26 26 0 26"></polygon>
                </g>
            </g>
        </g>
    </g>
</svg>