<?xml version="1.0" encoding="UTF-8"?>
<svg width="24px" height="24px" viewBox="0 0 24 24" version="1.1" xmlns="http://www.w3.org/2000/svg" xmlns:xlink="http://www.w3.org/1999/xlink">
    <!-- Generator: Sketch 49.3 (51167) - http://www.bohemiancoding.com/sketch -->
    <title>icon_activity</title>
    <desc>Created with Sketch.</desc>
    <defs></defs>
    <g id="Symbols" stroke="none" stroke-width="1" fill="none" fill-rule="evenodd">
        <g id="講座活動" transform="translate(-7.000000, -12.000000)">
            <g id="icon_activity" transform="translate(0.000000, 5.000000)">
                <rect id="Rectangle-path" x="0" y="0" width="37.8515625" height="38"></rect>
                <path d="M28.0145437,10.9214449 C28.9406389,10.49131 30,11.1668934 30,12.1880164 L30,22.7995243 C30,23.2589926 29.7747183,23.6903061 29.3957421,23.9500719 C27.8314286,25.02231 26.1509603,25.7335561 24.0483016,25.7335561 C21.1074167,25.7335561 19.1755635,24.2152505 16.8364484,24.2152505 C14.6166746,24.2152505 13.0770675,24.6542902 11.8412698,25.1808934 L11.8412698,29.3015719 C11.8412698,29.8801632 11.3722421,30.349191 10.7936508,30.349191 L10.0952381,30.349191 C9.51664683,30.349191 9.04761905,29.8801632 9.04761905,29.3015719 L9.04761905,12.4499648 C8.41455159,12.0082187 8,11.2749291 8,10.4444291 C8,9.0605243 9.14998016,7.94524653 10.5465,8.00207986 C11.7891508,8.05262748 12.8066944,9.04830208 12.8840437,10.2895561 C12.9067421,10.653691 12.8486865,11.0015005 12.7275119,11.3180561 C13.6326548,10.9850005 14.6084246,10.7936354 15.6977302,10.7936354 C18.6386151,10.7936354 20.5704683,12.311941 22.9095833,12.311941 C24.6772659,12.311941 26.5156627,11.6176314 28.0145437,10.9214449 Z" id="Shape" stroke="#5E5E5E" fill-rule="nonzero"></path>
                <path d="M11.8412698,13.876691 L11.8412698,16.9536354 C13.1071429,16.4878814 14.0753175,16.1753418 15.0539683,16.0408973 L15.0539683,12.91681 C14.0281746,13.0115322 13.2887302,13.3441513 11.8412698,13.876691 Z" id="Path" fill="#5E5E5E"></path>
                <path d="M21.4793651,14.2778418 C20.3262421,14.0739053 19.3018016,13.6676473 18.2666667,13.3463338 L18.2666667,16.2892703 C19.3219246,16.5819926 20.3429603,17.007064 21.4793651,17.2631195 L21.4793651,14.2778418 Z" id="Path" fill="#5E5E5E"></path>
                <path d="M15.0539683,16.0408973 L15.0539683,19.0981989 C16.4855397,18.9682068 17.4071825,19.0704807 18.2666667,19.2640719 L18.2666667,16.2892703 C17.1646151,15.982187 16.233369,15.8779489 15.0539683,16.0408973 Z" id="Path" fill="#5E5E5E"></path>
                <path d="M18.2666667,22.2493497 C19.4163413,22.4524132 20.4375079,22.8572743 21.4793651,23.1808576 L21.4793651,20.2383576 C20.4196548,19.9438894 19.4042063,19.5203021 18.2666667,19.2640719 L18.2666667,22.2493497 Z" id="Path" fill="#5E5E5E"></path>
                <path d="M11.8412698,22.9329211 C12.8723016,22.566691 13.9273413,22.3287941 15.0539683,22.210064 L15.0539683,19.0981989 C13.914246,19.2007783 12.9866667,19.4491513 11.8412698,19.8559767 L11.8412698,22.9329211 Z" id="Path" fill="#5E5E5E"></path>
                <path d="M27.9047619,13.2599053 C26.975,13.6462148 25.8710714,14.0299053 24.6920635,14.2407386 L24.6920635,17.3796672 C25.8841667,17.1893497 26.8759127,16.764191 27.9047619,16.3368497 L27.9047619,13.2599053 Z" id="Path" fill="#5E5E5E"></path>
                <path d="M27.9047619,22.4248259 L27.9047619,19.3478814 C26.9361508,19.9677227 25.7754762,20.3348259 24.6920635,20.4836751 L24.6920635,23.6081989 C25.7863889,23.50431 26.8086905,23.1262941 27.9047619,22.4248259 Z" id="Path" fill="#5E5E5E"></path>
                <path d="M21.4793651,17.2631195 L21.4793651,20.2383576 C22.599619,20.5497624 23.5141905,20.6461434 24.6920635,20.4836751 L24.6920635,17.3796672 C23.5571865,17.562433 22.5120119,17.4964767 21.4793651,17.2631195 Z" id="Path" fill="#5E5E5E"></path>
            </g>
        </g>
    </g>
</svg>