<svg width="20" height="26" viewBox="0 0 20 26" xmlns="http://www.w3.org/2000/svg"><g fill="none" fill-rule="evenodd"><path d="M-9-6h37.852v38H-9z"/><path d="M-2 2h22.154v24H-2z"/><path d="M-2 2h24v26H-2z"/><path d="M16.508 1.167H3.215C1.997 1.167 1 2.247 1 3.567v19.2c0 1.32.997 2.4 2.215 2.4h13.293c1.218 0 2.215-1.08 2.215-2.4v-19.2c0-1.32-.997-2.4-2.215-2.4h0z" stroke="#5E5E5E"/><path fill="#5E5E5E" d="M3 4h4v6.168L5 9.012l-2 1.156zm.215 17.567l3.323-4.632 2.37 3.096 3.324-4.632 4.276 6.168z"/><path d="M3 3.5h13.621" stroke="#5E5E5E"/></g></svg>