<?xml version="1.0" encoding="UTF-8"?>
<svg width="26px" height="21px" viewBox="0 0 26 21" version="1.1" xmlns="http://www.w3.org/2000/svg" xmlns:xlink="http://www.w3.org/1999/xlink">
    <!-- Generator: Sketch 49.3 (51167) - http://www.bohemiancoding.com/sketch -->
    <title>icon_Education</title>
    <desc>Created with Sketch.</desc>
    <defs></defs>
    <g id="Symbols" stroke="none" stroke-width="1" fill="none" fill-rule="evenodd">
        <g id="學歷" transform="translate(-6.000000, -14.000000)">
            <g id="icon_Education" transform="translate(0.000000, 5.000000)">
                <rect id="Rectangle-path" x="0" y="0" width="37.8515625" height="38"></rect>
                <g id="newspaper" transform="translate(7.000000, 10.000000)">
                    <path d="M23,0 L3.66666667,0 C3.114375,0 2.66666667,0.531653646 2.66666667,1.1875 L2.66666667,1.58333333 L1,1.58333333 C0.447708333,1.58333333 0,2.11498698 0,2.77083333 L0,16.2291667 C0,17.7594583 1.04466667,19 2.33333333,19 L22,19 C23.1045833,19 24,17.9366927 24,16.625 L24,1.1875 C24,0.531653646 23.5522917,0 23,0 Z" id="Shape" stroke="#5E5E5E" fill-rule="nonzero"></path>
                    <path d="M2.66666667,16.625 C2.29847683,16.625 2,16.4477794 2,16.2291667 L2,3.95833333 L3.33333333,3.95833333 L3.33333333,16.2291667 C3.33333333,16.4477794 3.0348565,16.625 2.66666667,16.625 Z" id="Path" fill="#5E5E5E"></path>
                    <path d="M12.1666667,15.8333333 L5.83333333,15.8333333 C5.55720833,15.8333333 5.33333333,15.5674818 5.33333333,15.2395833 L5.33333333,14.84375 C5.33333333,14.5158516 5.55720833,14.25 5.83333333,14.25 L12.1666667,14.25 C12.4427917,14.25 12.6666667,14.5158516 12.6666667,14.84375 L12.6666667,15.2395833 C12.6666667,15.5674818 12.4427917,15.8333333 12.1666667,15.8333333 Z" id="Path" fill="#5E5E5E"></path>
                    <path d="M20.8333333,15.8333333 L14.5,15.8333333 C14.223875,15.8333333 14,15.5674818 14,15.2395833 L14,14.84375 C14,14.5158516 14.223875,14.25 14.5,14.25 L20.8333333,14.25 C21.1094583,14.25 21.3333333,14.5158516 21.3333333,14.84375 L21.3333333,15.2395833 C21.3333333,15.5674818 21.1094583,15.8333333 20.8333333,15.8333333 Z" id="Path" fill="#5E5E5E"></path>
                    <path d="M12.1666667,12.0833333 L5.83333333,12.0833333 C5.55720833,12.0833333 5.33333333,11.8174818 5.33333333,11.4895833 L5.33333333,11.09375 C5.33333333,10.7658516 5.55720833,10.5 5.83333333,10.5 L12.1666667,10.5 C12.4427917,10.5 12.6666667,10.7658516 12.6666667,11.09375 L12.6666667,11.4895833 C12.6666667,11.8174818 12.4427917,12.0833333 12.1666667,12.0833333 Z" id="Path" fill="#5E5E5E"></path>
                    <path d="M20.8333333,12.0833333 L14.5,12.0833333 C14.223875,12.0833333 14,11.8174818 14,11.4895833 L14,11.09375 C14,10.7658516 14.223875,10.5 14.5,10.5 L20.8333333,10.5 C21.1094583,10.5 21.3333333,10.7658516 21.3333333,11.09375 L21.3333333,11.4895833 C21.3333333,11.8174818 21.1094583,12.0833333 20.8333333,12.0833333 Z" id="Path" fill="#5E5E5E"></path>
                    <path d="M20.8333333,8.16666667 L5.83333333,8.16666667 C5.55720833,8.16666667 5.33333333,7.74690104 5.33333333,7.22916667 L5.33333333,4.10416667 C5.33333333,3.58643229 5.55720833,3.16666667 5.83333333,3.16666667 L20.8333333,3.16666667 C21.1094583,3.16666667 21.3333333,3.58643229 21.3333333,4.10416667 L21.3333333,7.22916667 C21.3333333,7.74690104 21.1094583,8.16666667 20.8333333,8.16666667 Z" id="Path" fill="#5E5E5E"></path>
                </g>
            </g>
        </g>
    </g>
</svg>