<svg width="26" height="26" viewBox="0 0 26 26" xmlns="http://www.w3.org/2000/svg"><g fill="none" fill-rule="evenodd"><path d="M-6-6h37.852v38H-6z"/><path d="M22.429 1H3.57A2.572 2.572 0 0 0 1 3.571V22.43A2.572 2.572 0 0 0 3.571 25H22.43A2.572 2.572 0 0 0 25 22.429V3.57A2.572 2.572 0 0 0 22.429 1z" stroke="#5E5E5E"/><path d="M15.652 21.132c-.45.08-.616-.198-.616-.428 0-.29.01-1.768.01-2.963 0-.836-.278-1.366-.605-1.645 1.982-.22 4.071-.492 4.071-3.916 0-.975-.348-1.462-.916-2.089.091-.23.397-1.178-.09-2.41-.745-.231-2.449.958-2.449.958a8.346 8.346 0 0 0-2.228-.3c-.756 0-1.522.102-2.229.3 0 0-1.704-1.189-2.448-.959-.488 1.227-.188 2.175-.091 2.411-.568.627-.836 1.114-.836 2.09 0 3.406 1.998 3.696 3.98 3.915-.257.23-.487.627-.568 1.195-.508.23-1.81.627-2.587-.745a1.866 1.866 0 0 0-1.366-.916c-.868-.01-.059.547-.059.547.579.268.986 1.296.986 1.296.52 1.591 3.005 1.056 3.005 1.056 0 .744.01 1.955.01 2.175 0 .23-.16.508-.615.428C6.475 19.948 4 16.584 4 12.652 4 7.734 7.76 4 12.679 4c4.917 0 8.903 3.734 8.903 8.652.005 3.932-2.395 7.302-5.93 8.48z" fill="#5E5E5E"/></g></svg>