<?xml version="1.0" encoding="UTF-8"?>
<svg width="26px" height="23px" viewBox="0 0 26 23" version="1.1" xmlns="http://www.w3.org/2000/svg" xmlns:xlink="http://www.w3.org/1999/xlink">
    <!-- Generator: Sketch 49.3 (51167) - http://www.bohemiancoding.com/sketch -->
    <title>icon_Expertise</title>
    <desc>Created with Sketch.</desc>
    <defs></defs>
    <g id="Symbols" stroke="none" stroke-width="1" fill="none" fill-rule="evenodd">
        <g id="技能專長" transform="translate(-8.000000, -13.000000)">
            <g id="icon_Expertise" transform="translate(2.000000, 5.000000)">
                <rect id="Rectangle-path" x="0" y="0" width="37.8515625" height="38"></rect>
                <path d="M22,19 L31,19 L31,27.75 C31,28.9926562 29.9926562,30 28.75,30 L9.25,30 C8.00734375,30 7,28.9926562 7,27.75 L7,19 L16,19 L16,19.9375 C16,20.2481406 16.2518594,20.5 16.5625,20.5 L21.4375,20.5 C21.7481406,20.5 22,20.2481406 22,19.9375 L22,19 Z" id="Shape" stroke="#5E5E5E" fill-rule="nonzero"></path>
                <path d="M31,15.75 L31,17.5 L7,17.5 L7,15.75 C7,14.5073438 8.00734375,13.5 9.25,13.5 L13,13.5 L13,11.25 C13,10.0073438 14.0073437,9 15.25,9 L22.75,9 C23.9926562,9 25,10.0073438 25,11.25 L25,13.5 L28.75,13.5 C29.9926562,13.5 31,14.5073438 31,15.75 Z" id="Path" stroke="#5E5E5E"></path>
                <polygon id="Path" fill="#5E5E5E" points="22.5 11 15.5 11 15.5 14 22.5 14"></polygon>
            </g>
        </g>
    </g>
</svg>