<?xml version="1.0" encoding="UTF-8"?>
<svg width="26px" height="26px" viewBox="0 0 26 26" version="1.1" xmlns="http://www.w3.org/2000/svg" xmlns:xlink="http://www.w3.org/1999/xlink">
    <!-- Generator: Sketch 49.3 (51167) - http://www.bohemiancoding.com/sketch -->
    <title>icon_github</title>
    <desc>Created with Sketch.</desc>
    <defs></defs>
    <g id="Symbols" stroke="none" stroke-width="1" fill="none" fill-rule="evenodd">
        <g id="Github" transform="translate(-8.000000, -11.000000)">
            <g id="icon_github" transform="translate(2.000000, 5.000000)">
                <rect id="Rectangle-path" x="0" y="0" width="37.8515625" height="38"></rect>
                <path d="M28.4285714,7 L9.57142857,7 C8.15178571,7 7,8.15178571 7,9.57142857 L7,28.4285714 C7,29.8482143 8.15178571,31 9.57142857,31 L28.4285714,31 C29.8482143,31 31,29.8482143 31,28.4285714 L31,9.57142857 C31,8.15178571 29.8482143,7 28.4285714,7 Z" id="Shape" stroke="#5E5E5E" fill-rule="nonzero"></path>
                <path d="M21.6517857,27.1321429 C21.2017857,27.2125 21.0357143,26.9339286 21.0357143,26.7035714 C21.0357143,26.4142857 21.0464286,24.9357143 21.0464286,23.7410714 C21.0464286,22.9053571 20.7678571,22.375 20.4410714,22.0964286 C22.4232143,21.8767857 24.5125,21.6035714 24.5125,18.1803571 C24.5125,17.2053571 24.1642857,16.7178571 23.5964286,16.0910714 C23.6875,15.8607143 23.9928571,14.9125 23.5053571,13.6803571 C22.7607143,13.45 21.0571429,14.6392857 21.0571429,14.6392857 C20.35,14.4410714 19.5839286,14.3392857 18.8285714,14.3392857 C18.0732143,14.3392857 17.3071429,14.4410714 16.6,14.6392857 C16.6,14.6392857 14.8964286,13.45 14.1517857,13.6803571 C13.6642857,14.9071429 13.9642857,15.8553571 14.0607143,16.0910714 C13.4928571,16.7178571 13.225,17.2053571 13.225,18.1803571 C13.225,21.5875 15.2232143,21.8767857 17.2053571,22.0964286 C16.9482143,22.3267857 16.7178571,22.7232143 16.6375,23.2910714 C16.1285714,23.5214286 14.8267857,23.9178571 14.05,22.5464286 C13.5625,21.7 12.6839286,21.6303571 12.6839286,21.6303571 C11.8160714,21.6196429 12.625,22.1767857 12.625,22.1767857 C13.2035714,22.4446429 13.6107143,23.4732143 13.6107143,23.4732143 C14.1303571,25.0642857 16.6160714,24.5285714 16.6160714,24.5285714 C16.6160714,25.2732143 16.6267857,26.4839286 16.6267857,26.7035714 C16.6267857,26.9339286 16.4660714,27.2125 16.0107143,27.1321429 C12.475,25.9482143 10,22.5839286 10,18.6517857 C10,13.7339286 13.7607143,10 18.6785714,10 C23.5964286,10 27.5821429,13.7339286 27.5821429,18.6517857 C27.5875,22.5839286 25.1875,25.9535714 21.6517857,27.1321429 Z" id="Path" fill="#5E5E5E"></path>
            </g>
        </g>
    </g>
</svg>