<svg xmlns="http://www.w3.org/2000/svg" width="285" height="189" viewBox="0 0 285 189">
    <g fill="none" fill-rule="evenodd">
        <g fill-rule="nonzero" opacity=".475">
            <path fill="#4FD2E0" d="M215 102.51c0 29.105-17.078 54.854-43.259 70.528C154.956 183.09 134.426 189 112.26 189c-29.53 0-52.057-11.151-69.001-28.234-15.619-15.74-26.494-36.522-33.74-58.257C-22.83 5.47 31.208-21.003 112.26 16.02 163.864 39.593 215 54.743 215 102.509z"/>
            <circle cx="49" cy="25" r="6" fill="#F2F2F2"/>
            <circle cx="99" cy="41" r="4" fill="#F2F2F2"/>
            <circle cx="36" cy="78" r="4" fill="#F2F2F2"/>
            <path fill="#3F3D56" d="M20 49h1v77h-1z"/>
            <ellipse cx="20.5" cy="100.5" fill="#3F3D56" rx="8.5" ry="19.5"/>
            <ellipse cx="20.5" cy="56.5" fill="#3F3D56" rx="8.5" ry="19.5"/>
            <path fill="#3F3D56" d="M20.186 41l-.418-.126c.026-.088 2.594-8.916-1.622-14.599-2.381-3.21-6.468-4.837-12.146-4.837V21c5.825 0 10.03 1.687 12.498 5.015C22.844 31.876 20.214 40.91 20.186 41z"/>
            <circle cx="6.5" cy="21.5" r="5.5" fill="#3F3D56"/>
        </g>
        <g opacity=".765" transform="translate(52 41)">
            <circle cx="134.5" cy="45.5" r="7.5" fill="#2F2E41" fill-rule="nonzero"/>
            <path fill="#2F2E41" fill-rule="nonzero" d="M136.814 37.196c2.622 0 5.051 1.482 6.395 3.902A8.53 8.53 0 0 1 143.37 49c1.761-2.368 2.126-5.602.943-8.354-1.183-2.752-3.711-4.549-6.53-4.642-2.819-.093-5.445 1.533-6.783 4.202 1.41-1.903 3.55-3.011 5.814-3.01z"/>
            <circle cx="119.5" cy="22.5" r="22.5" fill="#2F2E41" fill-rule="nonzero"/>
            <path fill="#2F2E41" fill-rule="nonzero" d="M101.82 8.818c8.058-9.335 21.85-10.41 31.18-2.43-.184-.18-.366-.362-.557-.537-9.287-8.5-23.505-7.638-31.76 1.927-8.253 9.564-7.42 24.21 1.864 32.715.19.175.387.34.583.507-8.787-8.61-9.366-22.845-1.31-32.182z"/>
            <circle cx="119.5" cy="30.5" r="14.5" fill="#FFCAB8" fill-rule="nonzero"/>
            <path fill="#FFCAB8" fill-rule="nonzero" d="M108.49 35s1.955 17.524-1.174 19.429c-3.129 1.904 17.99 4.571 17.99 4.571S122.179 39.952 130 35h-21.51z"/>
            <path fill="#E1E1E1" fill-rule="nonzero" d="M127.737 52.426s5.786-2.648-2.547-1.705c-8.333.943-15.522-2.675-15.522-2.675s-2.525-2.476-2.914.19c-.388 2.667 1.166 7.618-7.383 8.38-8.548.761-16.32-1.524-19.428 4.19-3.109 5.712-1.554 30.47-1.554 30.47s5.828 20.567 10.491 23.614c4.663 3.047 45.463-1.143 45.463-1.143L146 93.18V69.185s-1.554-8.38-12.434-6.094c0 0-6.995-1.524-6.606-4.952.389-3.428.777-5.713.777-5.713z"/>
            <path fill="#2F2E41" fill-rule="nonzero" d="M91.523 128.758c.238-1.035.397-1.62.397-1.62l-.123-.842-1.265-8.6L90 114.07c4.606-1.922 5.759-10.763 5.759-10.763l.173-.104.786-.471v-.002l2.823-1.695.057-.034 1.14.76 2.315 1.546c8.102 5.965 16.353 5.859 21.444 4.919 3.112-.575 5.047-1.46 5.047-1.46l5.585-1.864.173-.057.172.025 3.276.496.059.011.271.04-.758 5.25-1.1 7.63c2.905 1.54 5.488 4.434 7.746 8 .5.789.985 1.61 1.454 2.462a60.25 60.25 0 0 1 1.947 3.85c.214.46.425.925.631 1.392H90.506a146.351 146.351 0 0 1 .236-1.392 81.506 81.506 0 0 1 .782-3.85z"/>
            <path fill="#2F2E41" fill-rule="nonzero" d="M89 56.03s4.258 7.722 2.71 17.376C90.16 83.059 96.355 107 96.355 107l4.645-1.158s-3.097-20.08-2.323-24.713c.775-4.634.775-22.782-3.096-25.1-3.871-2.316-6.581 0-6.581 0zM132.003 63.19l1.73 41.917 3.29 1.893s4.732-46 2.264-46h-5.023c-.62 0-1.214.234-1.641.648a1.99 1.99 0 0 0-.62 1.542z"/>
            <circle cx="98" cy="103" r="2" fill="#4FD2E0" fill-rule="nonzero"/>
            <circle cx="136" cy="105" r="2" fill="#4FD2E0" fill-rule="nonzero"/>
            <path fill="#2F2E41" fill-rule="nonzero" d="M107 13v14h3.333l4.243-4.421-.568 4.421h14.734l-.909-4.421L129.651 27H132V13z"/>
            <ellipse cx="105" cy="27" fill="#FFB8B8" fill-rule="nonzero" rx="1" ry="2"/>
            <ellipse cx="134" cy="27" fill="#FFB8B8" fill-rule="nonzero" rx="1" ry="2"/>
            <path fill="#FFB8B8" fill-rule="nonzero" d="M141.25 105.02s-17.078-3.616-18.204 2.767C121.92 114.17 142 111.404 142 111.404l-.75-6.383z"/>
            <path fill="#E1E1E1" fill-rule="nonzero" d="M140.702 65s42.072 33.03 34.352 41.004c-7.72 7.973-37.054 5.695-37.054 5.695l1.93-9.492 16.983-1.898-8.492-8.353-7.72.76V65z"/>
            <path fill="#FFB8B8" fill-rule="nonzero" d="M80 120.469l5.496 4.297s3.925 12.11 9.813 8.594c5.889-3.516-5.495-16.016-5.495-16.016L83.14 115 80 120.469z"/>
            <path fill="#E1E1E1" fill-rule="nonzero" d="M85 59l-5.32 1.6S42.702 87.953 41.178 95.572c-1.524 7.62 7.24 11.81 7.24 11.81L81.57 123l3.43-9.143-15.623-8s1.143-2.286-3.43-2.667c-4.573-.38-5.335-5.333-5.335-5.333s9.146-14.095 14.1-11.047c4.953 3.047 6.477 5.333 6.477 5.333L85 59z"/>
            <path fill="#3F3D56" fill-rule="nonzero" d="M162 129.705v1.337a3.066 3.066 0 0 1-.397 1.513c-.512.896-1.44 1.445-2.44 1.445H64.837c-1 0-1.928-.549-2.44-1.445a3.072 3.072 0 0 1-.397-1.513v-1.337c0-.785.299-1.537.83-2.092a2.778 2.778 0 0 1 2.007-.866h5.437v-.624c0-.032.012-.064.035-.087a.116.116 0 0 1 .083-.036h2.837c.032 0 .062.013.084.036a.126.126 0 0 1 .034.087v.624h1.773v-.624c0-.032.012-.064.034-.087a.116.116 0 0 1 .084-.036h2.837c.031 0 .061.013.084.036a.126.126 0 0 1 .034.087v.624h1.775v-.624c0-.032.012-.064.034-.087a.116.116 0 0 1 .084-.036h2.837c.031 0 .061.013.083.036a.126.126 0 0 1 .035.087v.624h1.772v-.624c0-.032.013-.064.035-.087a.116.116 0 0 1 .084-.036h2.836c.032 0 .062.013.084.036a.126.126 0 0 1 .035.087v.624h1.772v-.624c0-.032.012-.064.034-.087a.116.116 0 0 1 .084-.036h2.837c.031 0 .062.013.084.036a.126.126 0 0 1 .034.087v.624h1.775v-.624c0-.032.012-.064.034-.087a.116.116 0 0 1 .084-.036h2.837c.031 0 .061.013.084.036a.126.126 0 0 1 .034.087v.624h1.772v-.624c0-.032.013-.064.035-.087a.116.116 0 0 1 .084-.036h22.221c.032 0 .062.013.084.036a.126.126 0 0 1 .035.087v.624h1.774v-.624c0-.032.012-.064.035-.087a.116.116 0 0 1 .083-.036h2.837c.065 0 .118.055.119.123v.624h1.772v-.624c0-.032.012-.064.034-.087a.116.116 0 0 1 .084-.036h2.837c.031 0 .061.013.084.036a.126.126 0 0 1 .034.087v.624h1.772v-.624c0-.032.013-.064.035-.087a.116.116 0 0 1 .084-.036h2.837c.031 0 .061.013.083.036a.126.126 0 0 1 .035.087v.624h1.774v-.624c0-.032.013-.064.035-.087a.116.116 0 0 1 .084-.036h2.836a.12.12 0 0 1 .117.123v.624h1.774v-.624c0-.032.012-.064.035-.087a.116.116 0 0 1 .083-.036h2.837c.032 0 .062.013.084.036a.126.126 0 0 1 .034.087v.624h1.773v-.624c0-.032.012-.064.034-.087a.116.116 0 0 1 .084-.036h2.837c.031 0 .061.013.084.036a.126.126 0 0 1 .034.087v.624h8.274c.753 0 1.474.311 2.006.866.532.555.831 1.307.831 2.092z"/>
            <path fill="#3F3D56" fill-rule="nonzero" d="M34 132h155v1H34zM153.626 75.73h-35.097V75h-15.914v.73H67.374A2.385 2.385 0 0 0 65 78.125v48.48A2.385 2.385 0 0 0 67.374 129h86.252a2.385 2.385 0 0 0 2.374-2.395v-48.48c0-.636-.25-1.245-.695-1.694a2.364 2.364 0 0 0-1.679-.701z"/>
            <circle cx="111.5" cy="93.5" r="5.5" stroke="#D0CDE1" stroke-width="2"/>
            <circle cx="109.5" cy="94.5" r="5.5" fill="#E1E1E1" fill-rule="nonzero"/>
            <path fill="#3F3D56" fill-rule="nonzero" d="M5 140h41v1H5zM180 140h41v1h-41zM28.863 125.129C24.848 131.756 26.23 140 26.23 140s7.891-2.501 11.907-9.129C42.152 124.244 40.77 116 40.77 116s-7.891 2.501-11.907 9.129z"/>
            <path fill="#4FD2E0" fill-rule="nonzero" d="M25.994 140l-.237-.038c-.086-.014-8.638-1.448-13.76-7.652C6.876 126.106 7 117.331 7 117.243l.006-.243.237.038c.086.014 8.638 1.448 13.76 7.652C26.124 130.894 26 139.67 26 139.757l-.006.243z"/>
            <path fill="#3F3D56" fill-rule="nonzero" d="M25.727 140l-.23-.071c-.082-.026-8.329-2.65-12.497-9.394-4.169-6.743-2.782-15.215-2.767-15.3l.04-.235.23.071c.082.026 8.329 2.65 12.497 9.394 4.169 6.743 2.782 15.215 2.767 15.3l-.04.235zm-15.116-24.453c-.19 1.422-.946 8.797 2.746 14.77 3.693 5.975 10.668 8.657 12.032 9.136.19-1.422.946-8.797-2.746-14.77-3.693-5.975-10.667-8.657-12.032-9.136z"/>
            <circle cx="26.5" cy="113.5" r="4.5" fill="#3F3D56" fill-rule="nonzero"/>
            <path fill="#3F3D56" fill-rule="nonzero" d="M84.696 55L57.73 27.433H45V27h12.909l.063.064L85 54.695zM147.304 54l26.965-27.567H187V26h-12.91l-.062.064L147 53.695z"/>
            <path fill="#E1E1E1" fill-rule="nonzero" d="M0 15h31v6H0zM0 24h31v6H0zM0 33h31v6H0z"/>
            <path fill="#000" fill-rule="nonzero" d="M0 15h13v6H0zM0 24h4v6H0zM0 33h21v6H0z" opacity=".15"/>
            <path fill="#E1E1E1" fill-rule="nonzero" d="M202 16h31v3h-31z"/>
            <path fill="#4FD2E0" fill-rule="nonzero" d="M191 15h6v6h-6zM191 25h6v6h-6zM191 34h6v6h-6z"/>
            <path fill="#3F3D56" fill-rule="nonzero" d="M199 20h-7v-7h7v7zm-6.548-.452h6.096v-6.096h-6.096v6.096z"/>
            <path fill="#E1E1E1" fill-rule="nonzero" d="M202 25h31v3h-31z"/>
            <path fill="#3F3D56" fill-rule="nonzero" d="M199 30h-7v-7h7v7zm-6.548-.452h6.096v-6.096h-6.096v6.096z"/>
            <path fill="#E1E1E1" fill-rule="nonzero" d="M202 34h31v3h-31z"/>
            <path fill="#3F3D56" fill-rule="nonzero" d="M199 39h-7v-7h7v7zm-6.548-.452h6.096v-6.096h-6.096v6.096z"/>
            <circle cx="40.5" cy="17.5" r="3.5" fill="#4FD2E0" fill-rule="nonzero"/>
            <circle cx="40.5" cy="27.5" r="3.5" fill="#4FD2E0" fill-rule="nonzero"/>
            <circle cx="40.5" cy="37.5" r="3.5" fill="#4FD2E0" fill-rule="nonzero"/>
            <path fill="#3F3D56" fill-rule="nonzero" d="M38 20a4 4 0 1 1 0-8 4 4 0 0 1 0 8zm0-7.53a3.53 3.53 0 1 0 0 7.06 3.53 3.53 0 0 0 0-7.06zM38 31a4 4 0 1 1 0-8 4 4 0 0 1 0 8zm0-7.53a3.53 3.53 0 1 0 0 7.06 3.53 3.53 0 0 0 0-7.06zM38 40a4 4 0 1 1 0-8 4 4 0 0 1 0 8zm0-7.53a3.53 3.53 0 1 0 0 7.06 3.53 3.53 0 0 0 0-7.06zM209.116 126h-.418v-2.935c0-.324.281-.586.628-.587h1.046c.116 0 .21-.087.21-.195v-1.957c0-.108-.094-.195-.21-.196h-1.046c-.347 0-.628-.263-.628-.587v-.978c0-.108-.094-.195-.21-.195h-1.883c-.347 0-.628-.263-.628-.587v-.196c0-.108-.094-.196-.21-.196h-7.534c-.116 0-.21.088-.21.196v.196c0 .324-.281.586-.628.587h-1.883c-.116 0-.21.087-.21.195v.978c0 .324-.281.587-.628.587h-1.046c-.116 0-.21.088-.21.196v1.957c0 .108.094.195.21.195h1.256c.346 0 .627.263.628.587V126h-.419v-2.935c0-.108-.094-.195-.21-.195h-1.255c-.347 0-.628-.263-.628-.587v-1.957c0-.324.281-.587.628-.587h1.046c.116 0 .21-.087.21-.196v-.978c0-.324.281-.586.628-.587h1.883c.116 0 .21-.087.21-.195v-.196c0-.324.28-.587.628-.587h7.534c.347 0 .628.263.628.587v.196c0 .108.094.195.21.195h1.883c.347 0 .628.263.628.587v.978c0 .109.094.196.21.196h1.046c.347 0 .628.263.628.587v1.957c0 .324-.281.586-.628.587h-1.046c-.116 0-.21.087-.21.195V126zM208.373 140h-12.746c-.346 0-.627-.263-.627-.587V131h.418v8.413c0 .108.093.196.209.196h12.746c.116 0 .209-.088.21-.196V131H209v8.413c0 .324-.28.587-.627.587z"/>
            <rect width="17" height="5" x="195" y="128" fill="#4FD2E0" fill-rule="nonzero" rx="2"/>
            <path fill="#3F3D56" fill-rule="nonzero" d="M210.333 131h-16.666c-.368 0-.667-.258-.667-.577v-3.846c0-.319.299-.577.667-.577h16.666c.368 0 .667.258.667.577v3.846c0 .319-.299.577-.667.577zm-16.666-4.615c-.123 0-.223.086-.223.192v3.846c0 .106.1.192.223.192h16.666c.123 0 .223-.086.223-.192v-3.846c0-.106-.1-.192-.223-.192h-16.666z"/>
            <path fill="#D0CDE1" fill-rule="nonzero" d="M202 115a44.29 44.29 0 0 1-.543-11.595L202 97c-2.994 4.921-2.318 11.398 0 18zM204 117a32.997 32.997 0 0 1-.272-7.086L204 106c-1.497 3.007-1.159 6.966 0 11z"/>
        </g>
    </g>
</svg>
