<?xml version="1.0" encoding="iso-8859-1"?>
<!-- Generator: Adobe Illustrator 16.0.3, SVG Export Plug-In . SVG Version: 6.00 Build 0)  -->
<!DOCTYPE svg PUBLIC "-//W3C//DTD SVG 1.1//EN" "http://www.w3.org/Graphics/SVG/1.1/DTD/svg11.dtd">
<svg version="1.1" id="&#x5716;&#x5C64;_1" xmlns="http://www.w3.org/2000/svg" xmlns:xlink="http://www.w3.org/1999/xlink" x="0px"
	 y="0px" width="135px" height="40px" viewBox="0 0 135 40" style="enable-background:new 0 0 135 40;" xml:space="preserve">
<path style="fill:#FFFFFF;" d="M64.725,12.79c-2.057,0-3.732,1.563-3.732,3.718c0,2.14,1.675,3.717,3.732,3.717
	c2.055,0,3.731-1.577,3.731-3.717C68.456,14.353,66.78,12.79,64.725,12.79 M64.725,18.761c-1.127,0-2.099-0.93-2.099-2.253
	c0-1.338,0.972-2.253,2.099-2.253c1.126,0,2.098,0.915,2.098,2.253C66.823,17.831,65.851,18.761,64.725,18.761 M56.584,12.79
	c-2.056,0-3.732,1.563-3.732,3.718c0,2.14,1.676,3.717,3.732,3.717s3.731-1.577,3.731-3.717C60.315,14.353,58.64,12.79,56.584,12.79
	 M56.584,18.761c-1.127,0-2.098-0.93-2.098-2.253c0-1.338,0.971-2.253,2.098-2.253c1.126,0,2.098,0.915,2.098,2.253
	C58.682,17.831,57.71,18.761,56.584,18.761 M46.9,13.931v1.577h3.774c-0.113,0.887-0.408,1.535-0.859,1.985
	c-0.549,0.55-1.408,1.155-2.915,1.155c-2.324,0-4.14-1.873-4.14-4.196c0-2.324,1.816-4.197,4.14-4.197
	c1.253,0,2.168,0.493,2.845,1.127l1.112-1.113C49.913,9.368,48.66,8.678,46.9,8.678c-3.183,0-5.858,2.591-5.858,5.774
	c0,3.182,2.675,5.773,5.858,5.773c1.718,0,3.013-0.563,4.027-1.619c1.042-1.042,1.366-2.507,1.366-3.689
	c0-0.367-0.028-0.705-0.084-0.986H46.9z M86.503,15.156c-0.309-0.831-1.253-2.366-3.182-2.366c-1.915,0-3.507,1.507-3.507,3.718
	c0,2.084,1.577,3.717,3.689,3.717c1.704,0,2.69-1.042,3.098-1.647l-1.267-0.845c-0.423,0.619-1,1.028-1.831,1.028
	s-1.422-0.38-1.803-1.127l4.971-2.056L86.503,15.156z M81.434,16.395c-0.042-1.436,1.112-2.169,1.943-2.169
	c0.648,0,1.197,0.324,1.38,0.789L81.434,16.395z M77.392,20h1.634V9.072h-1.634V20z M74.717,13.621H74.66
	c-0.366-0.437-1.07-0.831-1.957-0.831c-1.859,0-3.563,1.634-3.563,3.732c0,2.084,1.704,3.703,3.563,3.703
	c0.887,0,1.591-0.394,1.957-0.845h0.057v0.535c0,1.423-0.761,2.183-1.985,2.183c-1,0-1.619-0.718-1.873-1.323l-1.423,0.591
	c0.408,0.985,1.493,2.197,3.296,2.197c1.915,0,3.534-1.128,3.534-3.874v-6.675h-1.549V13.621z M72.844,18.761
	c-1.127,0-2.069-0.944-2.069-2.239c0-1.31,0.942-2.267,2.069-2.267c1.112,0,1.985,0.957,1.985,2.267
	C74.829,17.817,73.956,18.761,72.844,18.761 M94.155,9.073h-3.908V20h1.631v-4.14h2.277c1.808,0,3.585-1.309,3.585-3.394
	S95.963,9.073,94.155,9.073 M94.197,14.339h-2.319v-3.745h2.319c1.22,0,1.912,1.009,1.912,1.872
	C96.109,13.313,95.417,14.339,94.197,14.339 M104.277,12.77c-1.182,0-2.404,0.52-2.91,1.673l1.448,0.604
	c0.309-0.604,0.886-0.801,1.489-0.801c0.845,0,1.701,0.506,1.715,1.406v0.112c-0.295-0.168-0.928-0.421-1.7-0.421
	c-1.561,0-3.149,0.857-3.149,2.46c0,1.462,1.279,2.404,2.713,2.404c1.098,0,1.701-0.492,2.081-1.069h0.056v0.844h1.575v-4.19
	C107.595,13.852,106.147,12.77,104.277,12.77 M104.08,18.759c-0.534,0-1.279-0.267-1.279-0.928c0-0.844,0.928-1.167,1.729-1.167
	c0.717,0,1.054,0.155,1.489,0.366C105.894,18.042,105.022,18.759,104.08,18.759 M113.33,13.009l-1.869,4.738h-0.057l-1.94-4.738
	h-1.757l2.91,6.621l-1.659,3.685h1.701l4.484-10.306H113.33z M98.64,20h1.632V9.073H98.64V20z"/>
<g>
	<defs>
		<path id="SVGID_1_" d="M10.436,7.538c-0.291,0.308-0.463,0.786-0.463,1.405v22.116c0,0.62,0.172,1.098,0.463,1.404l0.073,0.073
			l12.39-12.389v-0.146v-0.147L10.509,7.465L10.436,7.538z"/>
	</defs>
	<clipPath id="SVGID_2_">
		<use xlink:href="#SVGID_1_"  style="overflow:visible;"/>
	</clipPath>
	
		<linearGradient id="SVGID_3_" gradientUnits="userSpaceOnUse" x1="0" y1="39.8242" x2="1" y2="39.8242" gradientTransform="matrix(-16.7824 16.7824 -16.7824 -16.7824 693.1025 680.0054)">
		<stop  offset="0" style="stop-color:#00A0FF"/>
		<stop  offset="0.0066" style="stop-color:#00A1FF"/>
		<stop  offset="0.2601" style="stop-color:#00BEFF"/>
		<stop  offset="0.5122" style="stop-color:#00D2FF"/>
		<stop  offset="0.7604" style="stop-color:#00DFFF"/>
		<stop  offset="1" style="stop-color:#00E3FF"/>
	</linearGradient>
	<polygon style="clip-path:url(#SVGID_2_);fill:url(#SVGID_3_);" points="16.436,1.002 -2.563,20 16.436,38.999 35.435,20 	"/>
</g>
<g>
	<defs>
		<path id="SVGID_4_" d="M22.899,19.854v0.147v0.146l4.129,4.132l0.094-0.054l4.893-2.779c1.398-0.795,1.398-2.095,0-2.889
			l-4.893-2.78l-0.093-0.053L22.899,19.854z"/>
	</defs>
	<clipPath id="SVGID_5_">
		<use xlink:href="#SVGID_4_"  style="overflow:visible;"/>
	</clipPath>
	
		<linearGradient id="SVGID_6_" gradientUnits="userSpaceOnUse" x1="0" y1="40" x2="1" y2="40" gradientTransform="matrix(-24.1969 0 0 -24.1969 33.8422 987.8848)">
		<stop  offset="0" style="stop-color:#FFE000"/>
		<stop  offset="0.4087" style="stop-color:#FFBD00"/>
		<stop  offset="0.7754" style="stop-color:#FFA500"/>
		<stop  offset="1" style="stop-color:#FF9C00"/>
	</linearGradient>
	<rect x="22.899" y="15.724" style="clip-path:url(#SVGID_5_);fill:url(#SVGID_6_);" width="10.514" height="8.555"/>
</g>
<g>
	<defs>
		<path id="SVGID_7_" d="M10.436,32.463c0.46,0.488,1.221,0.549,2.078,0.063l14.608-8.301l-4.223-4.224L10.436,32.463z"/>
	</defs>
	<clipPath id="SVGID_8_">
		<use xlink:href="#SVGID_7_"  style="overflow:visible;"/>
	</clipPath>
	
		<linearGradient id="SVGID_9_" gradientUnits="userSpaceOnUse" x1="0" y1="40.0391" x2="1" y2="40.0391" gradientTransform="matrix(-22.7583 22.7583 -22.7583 -22.7583 935.143 932.6266)">
		<stop  offset="0" style="stop-color:#FF3A44"/>
		<stop  offset="1" style="stop-color:#C31162"/>
	</linearGradient>
	<polygon style="clip-path:url(#SVGID_8_);fill:url(#SVGID_9_);" points="18.779,11.658 3.931,26.507 18.779,41.355 33.627,26.507 	
		"/>
</g>
<g>
	<defs>
		<path id="SVGID_10_" d="M10.436,7.538l12.463,12.463l4.223-4.224l-14.608-8.3c-0.402-0.229-0.783-0.337-1.121-0.337
			C11.009,7.14,10.68,7.279,10.436,7.538"/>
	</defs>
	<clipPath id="SVGID_11_">
		<use xlink:href="#SVGID_10_"  style="overflow:visible;"/>
	</clipPath>
	
		<linearGradient id="SVGID_12_" gradientUnits="userSpaceOnUse" x1="0" y1="40.0938" x2="1" y2="40.0938" gradientTransform="matrix(10.1625 10.1625 -10.1625 10.1625 413.798 -406.3239)">
		<stop  offset="0" style="stop-color:#32A071"/>
		<stop  offset="0.0685" style="stop-color:#2DA771"/>
		<stop  offset="0.4762" style="stop-color:#15CF74"/>
		<stop  offset="0.8009" style="stop-color:#06E775"/>
		<stop  offset="1" style="stop-color:#00F076"/>
	</linearGradient>
	<polygon style="clip-path:url(#SVGID_11_);fill:url(#SVGID_12_);" points="4.005,13.57 18.779,28.344 33.553,13.57 18.779,-1.203 	
		"/>
</g>
<path style="fill:#FFFFFF;" d="M41.435,32.381h6.81v0.503h-6.81V32.381z M48.035,27.779v0.495h-6.337v-0.495h2.86v-1.532
	l0.669,0.046c-0.008,0.052-0.046,0.09-0.15,0.104v1.382H48.035z M43.192,28.688c0.391,1.014,0.661,2.305,0.706,3.168
	c-0.053,0-0.105,0.008-0.519,0.112c-0.029-0.849-0.299-2.154-0.667-3.161L43.192,28.688z M47.149,28.785
	c-0.023,0.053-0.091,0.098-0.189,0.104c-0.224,0.992-0.645,2.456-0.998,3.282l-0.45-0.128c0.33-0.855,0.713-2.365,0.908-3.416
	L47.149,28.785z"/>
<path style="fill:none;stroke:#FFFFFF;stroke-width:0.2;stroke-miterlimit:10;" d="M41.435,32.381h6.81v0.503h-6.81V32.381z
	 M48.035,27.779v0.495h-6.337v-0.495h2.86v-1.532l0.669,0.046c-0.008,0.052-0.046,0.09-0.15,0.104v1.382H48.035z M43.192,28.688
	c0.391,1.014,0.661,2.305,0.706,3.168c-0.053,0-0.105,0.008-0.519,0.112c-0.029-0.849-0.299-2.154-0.667-3.161L43.192,28.688z
	 M47.149,28.785c-0.023,0.053-0.091,0.098-0.189,0.104c-0.224,0.992-0.645,2.456-0.998,3.282l-0.45-0.128
	c0.33-0.855,0.713-2.365,0.908-3.416L47.149,28.785z"/>
<path style="fill:#FFFFFF;" d="M51.514,31.547c-0.226-0.322-0.473-0.645-0.721-0.915l0.391-0.218
	c0.556,0.607,1.148,1.426,1.403,1.975l-0.42,0.247c-0.09-0.202-0.232-0.45-0.39-0.705c-0.916,0.292-1.855,0.585-2.462,0.766
	c-0.008,0.06-0.046,0.098-0.098,0.119l-0.226-0.593c0.159-0.037,0.338-0.082,0.534-0.135v-5.42h2.695v3.476h-2.215v1.817
	L51.514,31.547z M51.746,27.147h-1.741v1.021h1.741V27.147z M50.004,29.671h1.741v-1.044h-1.741V29.671z M55.636,26.668v4.646
	c0,0.647-0.323,0.662-1.396,0.662c-0.023-0.143-0.106-0.383-0.181-0.525c0.248,0.007,0.48,0.015,0.653,0.015
	c0.368,0,0.413,0,0.413-0.158v-4.136h-1.689v6.051h-0.511v-6.554H55.636z"/>
<path style="fill:none;stroke:#FFFFFF;stroke-width:0.2;stroke-miterlimit:10;" d="M51.514,31.547
	c-0.226-0.322-0.473-0.645-0.721-0.915l0.391-0.218c0.556,0.607,1.148,1.426,1.403,1.975l-0.42,0.247
	c-0.09-0.202-0.232-0.45-0.39-0.705c-0.916,0.292-1.855,0.585-2.462,0.766c-0.008,0.06-0.046,0.098-0.098,0.119l-0.226-0.593
	c0.159-0.037,0.338-0.082,0.534-0.135v-5.42h2.695v3.476h-2.215v1.817L51.514,31.547z M51.746,27.147h-1.741v1.021h1.741V27.147z
	 M50.004,29.671h1.741v-1.044h-1.741V29.671z M55.636,26.668v4.646c0,0.647-0.323,0.662-1.396,0.662
	c-0.023-0.143-0.106-0.383-0.181-0.525c0.248,0.007,0.48,0.015,0.653,0.015c0.368,0,0.413,0,0.413-0.158v-4.136h-1.689v6.051h-0.511
	v-6.554H55.636z"/>
<path style="fill:#FFFFFF;" d="M63.354,27.313H60.17l-0.082,0.021v1.308l0.037-0.045c0.954,0.465,2.185,1.163,2.808,1.644
	l-0.352,0.45c-0.541-0.436-1.592-1.073-2.493-1.554v4.076h-0.533v-5.9h-2.966v-0.503h6.765V27.313z"/>
<path style="fill:none;stroke:#FFFFFF;stroke-width:0.2;stroke-miterlimit:10;" d="M63.354,27.313H60.17l-0.082,0.021v1.308
	l0.037-0.045c0.954,0.465,2.185,1.163,2.808,1.644l-0.352,0.45c-0.541-0.436-1.592-1.073-2.493-1.554v4.076h-0.533v-5.9h-2.966
	v-0.503h6.765V27.313z"/>
<path style="fill:#FFFFFF;" d="M68.678,28.379c0.068,0.954,0.188,1.832,0.361,2.544c0.413-0.644,0.735-1.364,0.976-2.115
	l0.586,0.165c-0.022,0.053-0.075,0.082-0.158,0.082c-0.285,0.887-0.697,1.741-1.23,2.491c0.247,0.729,0.563,1.181,0.945,1.181
	c0.225,0,0.315-0.383,0.36-1.322c0.105,0.105,0.278,0.226,0.405,0.264c-0.09,1.193-0.27,1.554-0.803,1.554
	c-0.548,0-0.961-0.458-1.269-1.217c-0.384,0.474-0.826,0.887-1.321,1.217c-0.083-0.12-0.233-0.278-0.368-0.376
	c0.187-0.119,0.375-0.256,0.548-0.397h-1.479v0.78h-0.458v-0.78h-1.659v-0.405h1.659V31.6h-1.329v-1.861h1.329v-0.436h-1.539v-0.391
	h1.539v-0.503l0.615,0.046c-0.007,0.045-0.052,0.082-0.149,0.097v0.36h1.576v0.391h-1.576v0.436h1.373V31.6h-1.381v0.443h1.614
	v0.293c0.292-0.263,0.571-0.563,0.819-0.886c-0.248-0.833-0.398-1.899-0.48-3.071h-4.159v-0.436h1.749v-0.652h-1.411V26.87h1.411
	v-0.63l0.638,0.037c-0.007,0.053-0.045,0.09-0.15,0.104v0.488h1.404v0.421h-1.404v0.652h1.9c-0.03-0.547-0.053-1.118-0.053-1.688
	c0.503,0.022,0.585,0.03,0.66,0.038c0,0.06-0.045,0.097-0.15,0.112c0,0.525,0.008,1.036,0.03,1.538h2.185v0.436H68.678z
	 M64.835,30.512h0.969v-0.458h-0.969V30.512z M64.835,31.285h0.969v-0.466h-0.969V31.285z M67.207,30.054h-0.998v0.458h0.998V30.054
	z M67.207,30.819h-0.998v0.466h0.998V30.819z M69.527,26.359c0.396,0.301,0.87,0.736,1.081,1.037l-0.376,0.292
	c-0.21-0.315-0.668-0.766-1.065-1.081L69.527,26.359z"/>
<path style="fill:none;stroke:#FFFFFF;stroke-width:0.2;stroke-miterlimit:10;" d="M68.678,28.379
	c0.068,0.954,0.188,1.832,0.361,2.544c0.413-0.644,0.735-1.364,0.976-2.115l0.586,0.165c-0.022,0.053-0.075,0.082-0.158,0.082
	c-0.285,0.887-0.697,1.741-1.23,2.491c0.247,0.729,0.563,1.181,0.945,1.181c0.225,0,0.315-0.383,0.36-1.322
	c0.105,0.105,0.278,0.226,0.405,0.264c-0.09,1.193-0.27,1.554-0.803,1.554c-0.548,0-0.961-0.458-1.269-1.217
	c-0.384,0.474-0.826,0.887-1.321,1.217c-0.083-0.12-0.233-0.278-0.368-0.376c0.187-0.119,0.375-0.256,0.548-0.397h-1.479v0.78
	h-0.458v-0.78h-1.659v-0.405h1.659V31.6h-1.329v-1.861h1.329v-0.436h-1.539v-0.391h1.539v-0.503l0.615,0.046
	c-0.007,0.045-0.052,0.082-0.149,0.097v0.36h1.576v0.391h-1.576v0.436h1.373V31.6h-1.381v0.443h1.614v0.293
	c0.292-0.263,0.571-0.563,0.819-0.886c-0.248-0.833-0.398-1.899-0.48-3.071h-4.159v-0.436h1.749v-0.652h-1.411V26.87h1.411v-0.63
	l0.638,0.037c-0.007,0.053-0.045,0.09-0.15,0.104v0.488h1.404v0.421h-1.404v0.652h1.9c-0.03-0.547-0.053-1.118-0.053-1.688
	c0.503,0.022,0.585,0.03,0.66,0.038c0,0.06-0.045,0.097-0.15,0.112c0,0.525,0.008,1.036,0.03,1.538h2.185v0.436H68.678z
	 M64.835,30.512h0.969v-0.458h-0.969V30.512z M64.835,31.285h0.969v-0.466h-0.969V31.285z M67.207,30.054h-0.998v0.458h0.998V30.054
	z M67.207,30.819h-0.998v0.466h0.998V30.819z M69.527,26.359c0.396,0.301,0.87,0.736,1.081,1.037l-0.376,0.292
	c-0.21-0.315-0.668-0.766-1.065-1.081L69.527,26.359z"/>
</svg>
