<?xml version="1.0" encoding="iso-8859-1"?>
<!-- Generator: Adobe Illustrator 16.0.3, SVG Export Plug-In . SVG Version: 6.00 Build 0)  -->
<!DOCTYPE svg PUBLIC "-//W3C//DTD SVG 1.1//EN" "http://www.w3.org/Graphics/SVG/1.1/DTD/svg11.dtd">
<svg version="1.1" id="&#x5716;&#x5C64;_1" xmlns="http://www.w3.org/2000/svg" xmlns:xlink="http://www.w3.org/1999/xlink" x="0px"
	 y="0px" width="135px" height="40px" viewBox="0 0 135 40" style="enable-background:new 0 0 135 40;" xml:space="preserve">
<path style="fill:#FFFFFF;" d="M30.128,19.784c-0.029-3.223,2.639-4.791,2.761-4.864c-1.511-2.203-3.853-2.505-4.676-2.528
	c-1.967-0.207-3.875,1.177-4.877,1.177c-1.022,0-2.565-1.157-4.228-1.122c-2.139,0.033-4.142,1.272-5.24,3.195
	c-2.265,3.923-0.575,9.688,1.595,12.859c1.086,1.553,2.355,3.287,4.016,3.226c1.625-0.067,2.231-1.036,4.193-1.036
	c1.943,0,2.513,1.036,4.207,0.997c1.744-0.028,2.842-1.56,3.89-3.127c1.255-1.78,1.759-3.533,1.779-3.623
	C33.507,24.924,30.161,23.647,30.128,19.784"/>
<path style="fill:#FFFFFF;" d="M26.928,10.306c0.874-1.093,1.472-2.58,1.306-4.089c-1.265,0.056-2.847,0.874-3.758,1.944
	c-0.806,0.942-1.526,2.486-1.34,3.938C24.557,12.204,26.016,11.382,26.928,10.306"/>
<path style="fill:#FFFFFF;" d="M54.006,17.03H52l-1.1-3.455h-3.821l-1.047,3.455h-1.954l3.786-11.761h2.339L54.006,17.03z
	 M50.568,12.127l-0.995-3.071c-0.104-0.314-0.302-1.053-0.593-2.216h-0.035c-0.116,0.5-0.302,1.239-0.558,2.216l-0.977,3.071H50.568
	z"/>
<path style="fill:#FFFFFF;" d="M63.742,12.685c0,1.443-0.389,2.583-1.168,3.421c-0.699,0.744-1.564,1.116-2.602,1.116
	c-1.115,0-1.918-0.401-2.406-1.204h-0.035v4.467h-1.885v-9.143c0-0.908-0.024-1.838-0.07-2.792h1.658l0.105,1.344h0.034
	c0.629-1.013,1.582-1.519,2.861-1.519c1.002,0,1.836,0.396,2.506,1.187C63.408,10.353,63.742,11.394,63.742,12.685 M61.824,12.755
	c0-0.826-0.187-1.506-0.559-2.042c-0.408-0.558-0.955-0.837-1.64-0.837c-0.465,0-0.887,0.154-1.266,0.462
	c-0.379,0.309-0.625,0.713-0.742,1.213c-0.059,0.233-0.086,0.425-0.086,0.576v1.414c0,0.616,0.188,1.137,0.567,1.561
	c0.378,0.425,0.869,0.637,1.474,0.637c0.709,0,1.262-0.273,1.658-0.82C61.625,14.372,61.824,13.651,61.824,12.755"/>
<path style="fill:#FFFFFF;" d="M73.497,12.685c0,1.443-0.39,2.583-1.169,3.421c-0.698,0.744-1.564,1.116-2.601,1.116
	c-1.116,0-1.919-0.401-2.407-1.204h-0.035v4.467H65.4v-9.143c0-0.908-0.023-1.838-0.069-2.792h1.657l0.105,1.344h0.035
	c0.628-1.013,1.582-1.519,2.861-1.519c1.001,0,1.835,0.396,2.505,1.187C73.162,10.353,73.497,11.394,73.497,12.685 M71.578,12.755
	c0-0.826-0.186-1.506-0.559-2.042c-0.407-0.558-0.954-0.837-1.641-0.837c-0.465,0-0.887,0.154-1.265,0.462
	c-0.379,0.309-0.626,0.713-0.742,1.213c-0.059,0.233-0.087,0.425-0.087,0.576v1.414c0,0.616,0.189,1.137,0.567,1.561
	c0.378,0.425,0.87,0.637,1.474,0.637c0.71,0,1.263-0.273,1.658-0.82S71.578,13.651,71.578,12.755"/>
<path style="fill:#FFFFFF;" d="M86.759,13.732c0,1-0.349,1.814-1.045,2.443c-0.766,0.686-1.834,1.029-3.203,1.029
	c-1.266,0-2.281-0.244-3.048-0.733l0.436-1.57c0.826,0.5,1.734,0.75,2.724,0.75c0.71,0,1.263-0.16,1.658-0.481
	c0.396-0.32,0.594-0.748,0.594-1.284c0-0.478-0.163-0.88-0.488-1.206c-0.326-0.326-0.867-0.629-1.623-0.909
	c-2.06-0.769-3.089-1.894-3.089-3.374c0-0.966,0.36-1.759,1.082-2.376c0.721-0.618,1.681-0.927,2.879-0.927
	c1.07,0,1.96,0.186,2.67,0.558l-0.471,1.536c-0.663-0.36-1.414-0.541-2.251-0.541c-0.663,0-1.181,0.163-1.553,0.489
	c-0.314,0.291-0.472,0.645-0.472,1.064c0,0.466,0.181,0.849,0.541,1.152c0.314,0.279,0.884,0.582,1.71,0.907
	c1.013,0.408,1.757,0.885,2.233,1.431C86.52,12.237,86.759,12.918,86.759,13.732"/>
<path style="fill:#FFFFFF;" d="M92.988,9.963h-2.077v4.118c0,1.047,0.367,1.571,1.1,1.571c0.338,0,0.616-0.029,0.838-0.087
	l0.053,1.431c-0.373,0.139-0.861,0.209-1.466,0.209c-0.745,0-1.326-0.227-1.745-0.681s-0.629-1.215-0.629-2.286V9.963h-1.238V8.55
	h1.238V6.997l1.85-0.558V8.55h2.077V9.963z"/>
<path style="fill:#FFFFFF;" d="M102.358,12.72c0,1.303-0.373,2.373-1.117,3.211c-0.779,0.861-1.814,1.291-3.105,1.291
	c-1.245,0-2.237-0.413-2.976-1.239c-0.739-0.826-1.108-1.867-1.108-3.123c0-1.315,0.381-2.391,1.144-3.229
	c0.762-0.837,1.788-1.256,3.079-1.256c1.245,0,2.245,0.413,3.002,1.239C101.997,10.417,102.358,11.452,102.358,12.72
	 M100.403,12.781c0-0.782-0.168-1.453-0.506-2.012c-0.396-0.677-0.96-1.015-1.692-1.015c-0.757,0-1.332,0.338-1.728,1.015
	c-0.338,0.559-0.506,1.242-0.506,2.047c0,0.782,0.168,1.453,0.506,2.012c0.408,0.677,0.978,1.016,1.71,1.016
	c0.722,0,1.285-0.345,1.692-1.033C100.229,14.239,100.403,13.563,100.403,12.781"/>
<path style="fill:#FFFFFF;" d="M108.482,10.208c-0.186-0.035-0.384-0.052-0.593-0.052c-0.663,0-1.175,0.25-1.536,0.75
	c-0.313,0.442-0.471,1.001-0.471,1.675v4.45h-1.885l0.018-5.811c0-0.977-0.023-1.867-0.07-2.67h1.641l0.07,1.623h0.052
	c0.198-0.558,0.512-1.006,0.942-1.343c0.419-0.303,0.873-0.455,1.361-0.455c0.175,0,0.331,0.012,0.471,0.036V10.208z"/>
<path style="fill:#FFFFFF;" d="M116.91,12.389c0,0.337-0.023,0.622-0.07,0.855h-5.652c0.022,0.837,0.296,1.477,0.818,1.919
	c0.479,0.396,1.095,0.593,1.851,0.593c0.838,0,1.6-0.133,2.286-0.401l0.297,1.309c-0.803,0.349-1.751,0.524-2.845,0.524
	c-1.314,0-2.347-0.387-3.097-1.161c-0.751-0.773-1.126-1.812-1.126-3.115c0-1.279,0.35-2.343,1.047-3.193
	c0.733-0.907,1.722-1.361,2.967-1.361c1.222,0,2.146,0.454,2.774,1.361C116.66,10.44,116.91,11.33,116.91,12.389 M115.113,11.9
	c0.012-0.558-0.11-1.041-0.366-1.448c-0.326-0.524-0.826-0.785-1.501-0.785c-0.616,0-1.117,0.255-1.501,0.767
	c-0.313,0.408-0.5,0.896-0.558,1.466H115.113z"/>
<path style="fill:#FFFFFF;" d="M49.143,35.291V24.206h-4.98v-1.097l12.345,0.015l-0.015,1.082h-6.194l-0.014,11.085H49.143z
	 M54.597,31.602c-0.287-0.396-0.591-0.752-0.912-1.068c-0.32-0.315-0.642-0.6-0.963-0.852s-0.635-0.472-0.941-0.66
	c-0.306-0.188-0.588-0.355-0.845-0.504l0.504-0.844c0.474,0.178,0.906,0.391,1.297,0.637c0.39,0.248,0.768,0.523,1.133,0.83
	c0.267,0.228,0.529,0.475,0.786,0.741c0.256,0.267,0.513,0.548,0.771,0.845L54.597,31.602z"/>
<path style="fill:#FFFFFF;" d="M68.394,21.927c0,0.228,0.002,0.415,0.007,0.563s0.014,0.307,0.023,0.475l0.666-0.639
	c0.494,0.179,0.928,0.431,1.297,0.756c0.371,0.327,0.715,0.697,1.031,1.112c-0.08,0.128-0.174,0.242-0.283,0.341
	c-0.107,0.099-0.217,0.203-0.326,0.311h1.008v1.053h-3.273c0.077,0.85,0.165,1.65,0.259,2.4c0.093,0.752,0.185,1.492,0.274,2.224
	c0.346-0.622,0.592-1.237,0.74-1.845s0.252-1.297,0.311-2.068l1.053,0.312c-0.068,0.988-0.246,1.903-0.533,2.749
	s-0.678,1.628-1.17,2.35c0.127,0.355,0.293,0.711,0.496,1.066c0.201,0.355,0.457,0.662,0.764,0.919
	c0.049,0.03,0.094,0.015,0.133-0.044c0.049-0.148,0.088-0.314,0.119-0.497c0.029-0.183,0.045-0.362,0.051-0.54
	c0.006-0.179,0.008-0.352,0.008-0.52s-0.006-0.311-0.016-0.43l1.082,0.385c-0.029,0.455-0.076,0.9-0.141,1.334
	c-0.064,0.436-0.209,0.825-0.438,1.172c-0.188,0.217-0.439,0.334-0.756,0.355c-0.178-0.01-0.346-0.055-0.504-0.134
	s-0.303-0.178-0.438-0.296c-0.133-0.119-0.254-0.25-0.361-0.393c-0.109-0.144-0.209-0.279-0.297-0.408
	c-0.09-0.139-0.176-0.291-0.259-0.459c-0.084-0.168-0.166-0.321-0.245-0.46c-0.118,0.148-0.272,0.307-0.459,0.474
	c-0.189,0.169-0.388,0.344-0.601,0.527c-0.213,0.183-0.437,0.362-0.674,0.541c-0.237,0.178-0.469,0.346-0.697,0.504l-0.874-0.846
	c0.306-0.178,0.568-0.338,0.785-0.481c0.218-0.144,0.371-0.255,0.46-0.333h-2.683v1.793h-1.17v-1.793h-3.883v-1.008h3.897
	l0.015-0.563h-2.756v-3.823h2.756v-0.49h-3.363v-0.963l3.363-0.014v-0.683h-3.631v-1.067h3.572l-0.014-0.711h-2.995v-0.992h2.995
	l0.014-1.201h1.126v1.201h3.053l0.015,0.992h-3.053l-0.015,0.711h3.468l-0.058-2.919H68.394z M62.792,28.98l-1.689-0.014v0.474
	h1.674L62.792,28.98z M62.776,30.33h-1.675v0.637h1.675V30.33z M67.55,32.642c0.059-0.05,0.158-0.151,0.296-0.304
	c0.138-0.153,0.267-0.309,0.385-0.467c-0.128-0.405-0.237-0.85-0.326-1.334c-0.089-0.484-0.165-0.985-0.229-1.505
	c-0.065-0.519-0.119-1.042-0.163-1.57c-0.045-0.528-0.087-1.04-0.126-1.534h-3.483v0.668h3.32l0.014,0.963h-3.334v0.504l2.756-0.016
	v3.839h-2.756v0.563h3.631L67.55,32.642z M65.594,28.967h-1.689v0.474h1.689V28.967z M65.594,30.314l-1.69,0.016v0.637h1.69V30.314z
	 M70.559,24.846c-0.268-0.404-0.576-0.756-0.928-1.052c-0.35-0.296-0.758-0.543-1.223-0.741c0.021,0.346,0.032,0.67,0.037,0.971
	s0.019,0.576,0.037,0.822H70.559z"/>
</svg>
