<svg xmlns="http://www.w3.org/2000/svg" width="40" height="6" viewBox="0 0 40 6">
    <path fill="#FFEE61" fill-rule="evenodd" d="M40 6c-2.157 0-3.324-1.115-4.097-1.853-.683-.65-.953-.876-1.622-.876-.669 0-.939.225-1.623.877C31.886 4.885 30.718 6 28.562 6c-2.157 0-3.324-1.115-4.096-1.853-.682-.65-.952-.876-1.619-.876-.666 0-.936.225-1.618.876C20.458 4.884 19.292 6 17.137 6c-2.157 0-3.323-1.115-4.095-1.853-.682-.65-.951-.876-1.618-.876-.667 0-.937.225-1.618.876C9.034 4.885 7.867 6 5.712 6 3.556 6 2.389 4.884 1.617 4.147.936 3.497.666 3.271 0 3.271V0c2.155 0 3.322 1.115 4.094 1.853.681.65.951.876 1.618.876.666 0 .935-.225 1.617-.876C8.101 1.116 9.268 0 11.424 0c2.156 0 3.322 1.115 4.095 1.853.681.65.951.876 1.618.876.665 0 .934-.225 1.616-.875C19.524 1.116 20.69 0 22.847 0c2.156 0 3.323 1.115 4.095 1.853.682.65.953.876 1.62.876.668 0 .938-.225 1.622-.876C30.956 1.115 32.124 0 34.281 0c2.157 0 3.324 1.115 4.097 1.853.684.65.953.876 1.622.876V6z"/>
</svg>
