<svg xmlns="http://www.w3.org/2000/svg" width="44" height="38" viewBox="0 0 44 38"><defs><linearGradient id="a" x1="50%" x2="50%" y1="1.474%" y2="100%"><stop offset="0%" stop-color="#EDF171"/><stop offset="100%" stop-color="#227102"/></linearGradient></defs><g fill="none" fill-rule="evenodd"><path fill="url(#a)" d="M16.372 35.095c-1.35-1.564-5.53-1.295-8.186-.18 1.624.958 4.84 1.586 7.3.552l.886-.372zM30.997 2c6.486 2.9 10.956 9.022 10.956 16.105C41.953 27.988 33.25 36 22.512 36S3.07 27.988 3.07 18.105C3.07 11.022 7.54 4.9 14.026 2c-.68.34-1.332.722-1.956 1.138C7.133 6.26 3.89 11.532 3.89 17.51c0 9.585 8.337 17.355 18.622 17.355 10.284 0 18.622-7.77 18.622-17.355 0-5.979-3.244-11.251-8.181-14.372A18.337 18.337 0 0 0 30.997 2zm-5.035 32c1.64-.916 2.008-4.545 1.372-7-1.12 1.245-2.172 3.907-1.584 6.182l.212.818zm-2.427 2.242l.741.439c2.061 1.219 5.481 1.5 7.445 1.219-2.225-1.316-6.27-2.401-8.186-1.658zM28.65 1.737l-.202-.226c-.56-.63-1.392-.604-1.844-.317.605.68 1.632 1.111 2.046.543zm2.047.179c-.408-.229-1.436-.069-2.047.193.448.119 1.277.137 1.843-.106l.204-.087zm1.023 0c-.408-.229-1.436-.069-2.047.194.448.118 1.278.136 1.843-.107l.204-.087zm1.023.367c-.407-.59-1.436-.177-2.046.5.448.304 1.277.352 1.843-.275l.203-.225zm0 1.119c-.373-.697-1.41-.403-2.046.238.427.395 1.244.568 1.834-.025l.212-.213zm2.047 1.137c-.34-.778-1.384-.634-2.047-.07.407.474 1.212.78 1.826.258l.22-.188zm0 1.189c-.293-.818-1.348-.894-2.047-.489.38.54 1.167 1 1.814.624l.233-.135zm1.023 2.143c-.247-.772-1.313-1.022-2.047-.785.352.542 1.123 1.084 1.802.864l.245-.079zm3.07 1.09c-.297-.676-1.913-1.038-3.07-.947.483.5 1.612 1.062 2.684.978l.386-.03zm0 3.039c-.2-1.101-1.84-1.94-3.07-2 .425.86 1.52 1.925 2.66 1.98l.41.02zm1.023 2c-.086-.901-1.752-1.788-3.07-2 .357.74 1.41 1.733 2.63 1.93l.44.07zm1.02 2c.097-1.101-1.61-2.49-3.067-3 .246.96 1.23 2.357 2.58 2.83l.486.17zm-1.06 3c.274-.898-.892-2.335-2.007-3 .035.837.602 2.162 1.635 2.778l.371.222zm-1.154 3c.615-.994-.535-2.957-1.83-4-.188.994.198 2.686 1.399 3.652l.431.348zm-2.383 4c1.127-.82.216-2.824-1.176-4-.56.89-.579 2.519.712 3.608l.464.392zm-1.789 2c1.652-.781 1.551-3.344.524-5-1.044.966-1.818 2.914-.866 4.448l.342.552zm-3.737 4c1.427-.71 2.132-4.388 1.895-7-1.045 1.122-2.194 3.709-1.974 6.13l.08.87zm-2.109 1c1.32-.623 2.104-4.321 1.992-7-.99 1.07-2.133 3.625-2.03 6.107l.038.893zm.98-31.008C28.97 2.109 28.011.987 27.627 0c.626.128 1.563.748 1.918 1.663l.128.329zm3.07 1.007l-.107-.307c-.294-.855-1.262-1.51-1.94-1.692.317.923 1.255 2.027 2.046 2zm0 .001l-.08-.29c-.217-.803-1.224-1.485-1.967-1.71.234.868 1.147 1.956 2.046 2zm3.069 2l-.037-.272c-.104-.757-1.17-1.463-2.01-1.728.112.817.987 1.89 2.047 2zm2.031 1l.014-.385c.038-1.071-.531-2.163-1.019-2.615-.041 1.156.359 2.743 1.005 3zm.932 3l.069-.362c.19-1.008-.373-2.132-.921-2.638-.206 1.087.081 2.653.852 3zm.858 2l.136-.342c.378-.95-.097-2.104-.65-2.658-.408 1.026-.322 2.573.514 3zm1.768 2l.208-.422c.58-1.175.34-2.76-.103-3.578-.625 1.268-.86 3.3-.105 4zm-.014 3l.465-.388c1.291-1.077 1.328-2.712.814-3.612-1.395 1.163-2.348 3.163-1.279 4zm.744 3c-.634-.986.513-2.95 1.816-4 .2.99-.174 2.678-1.382 3.65l-.434.35zm-.128 4l.38-.304c1.056-.845 1.606-2.6 1.615-3.696-1.14.912-2.31 2.835-1.995 4zm-2.089 2l.498-.182c1.384-.505 2.348-1.886 2.563-2.818-1.494.545-3.21 1.945-3.06 3zm-2.056 4l.738-.112c2.051-.313 3.798-1.793 4.379-2.888-2.214.337-4.995 1.673-5.117 3zm-2.046 1.99l.799.01c2.221.026 4.44-1.075 5.34-2-2.396-.028-5.655.78-6.139 1.99zm-5.116 2.741l.975.163c2.713.453 5.799-.627 7.21-1.712-2.926-.488-7.188-.002-8.185 1.55zm-3.07 1.364l.886.372c2.461 1.034 5.676.406 7.3-.551-2.657-1.116-6.835-1.385-8.186.18zM18.038 34l.212-.818c.588-2.275-.464-4.937-1.584-6.182-.636 2.455-.267 6.084 1.372 7zm2.427 2.242l-.741.439c-2.061 1.219-5.481 1.5-7.445 1.219 2.224-1.316 6.27-2.401 8.186-1.658zM15.35 1.737c.414.568 1.44.136 2.046-.543-.452-.287-1.283-.312-1.844.317l-.202.226zm-2.047.179l.204.087c.566.243 1.395.225 1.843.106-.611-.262-1.64-.422-2.047-.193zm0 0l.204.087c.566.243 1.395.225 1.843.107-.61-.263-1.639-.423-2.047-.194zm-2.046.367l.203.225c.566.627 1.395.579 1.843.274-.61-.676-1.639-1.089-2.046-.499zm0 1.119l.212.213c.59.593 1.407.42 1.834.025-.636-.64-1.673-.935-2.046-.238zM9.209 4.539l.221.188c.614.522 1.418.216 1.826-.259-.663-.563-1.707-.707-2.047.071zm0 1.189l.233.135c.647.376 1.435-.084 1.814-.624-.698-.405-1.753-.33-2.047.489zM8.186 7.87l.244.079c.68.22 1.45-.322 1.803-.864-.734-.237-1.8.013-2.047.785zm-3.07 1.09l.386.03c1.072.085 2.201-.477 2.684-.977-1.157-.09-2.773.27-3.07.948zm0 3.039l.41-.02c1.14-.055 2.235-1.12 2.66-1.98-1.23.06-2.87.899-3.07 2zm-1.023 2l.44-.07c1.22-.197 2.274-1.19 2.63-1.93-1.318.212-2.984 1.099-3.07 2zm.004 2l.486-.17c1.35-.473 2.334-1.87 2.58-2.83-1.457.51-3.164 1.899-3.066 3zm.037 3l.371-.222c1.033-.616 1.6-1.94 1.635-2.778-1.115.665-2.282 2.102-2.006 3zm1.153 3l.431-.348c1.201-.966 1.587-2.658 1.4-3.652-1.296 1.043-2.446 3.006-1.831 4zm2.383 4l.464-.392c1.29-1.09 1.272-2.718.712-3.608-1.392 1.176-2.304 3.18-1.176 4zm1.789 2l.342-.552c.952-1.534.178-3.482-.866-4.448-1.027 1.656-1.128 4.219.524 5zm3.737 4l.079-.87c.22-2.421-.929-5.008-1.974-6.13-.237 2.612.468 6.29 1.895 7zm2.109 1l.037-.893c.104-2.482-1.038-5.038-2.029-6.107-.112 2.679.671 6.377 1.992 7zm-.98-31.008l.128-.33C14.81.749 15.746.129 16.373 0c-.385.987-1.343 2.109-2.047 1.992zM12.28 2.999c.79.028 1.729-1.076 2.047-1.999-.679.182-1.647.837-1.941 1.692l-.106.307zM11.256 3c.899-.044 1.812-1.132 2.046-2-.743.225-1.75.907-1.968 1.71l-.078.29zm-3.07 2c1.06-.11 1.935-1.183 2.047-2-.84.265-1.906.97-2.01 1.728L8.186 5zm-2.03 1C6.8 5.743 7.2 4.156 7.16 3c-.488.452-1.057 1.544-1.019 2.615L6.155 6zm-.933 3c.771-.347 1.058-1.913.852-3-.548.506-1.111 1.63-.92 2.638L5.222 9zm-.858 2c.836-.427.922-1.974.514-3-.553.554-1.028 1.708-.65 2.658l.136.342zm-1.768 2c.755-.7.52-2.732-.105-4-.443.818-.683 2.403-.103 3.578l.208.422zm.014 3c1.07-.837.116-2.837-1.279-4-.514.9-.477 2.535.814 3.612l.465.388zm.28 3l-.435-.35C1.248 17.678.874 15.99 1.074 15c1.304 1.05 2.45 3.014 1.816 4zm-.897 4C2.31 21.835 1.14 19.912 0 19c.01 1.097.559 2.85 1.615 3.696l.38.304zm2.09 2c.15-1.055-1.567-2.455-3.06-3 .214.932 1.178 2.313 2.562 2.818l.498.182zm2.056 4c-.122-1.327-2.903-2.663-5.117-3 .581 1.095 2.328 2.575 4.379 2.888L6.14 29zm2.046 1.99c-.484-1.21-3.742-2.018-6.14-1.99.901.925 3.12 2.026 5.341 2l.799-.01zm5.116 2.741l-.975.163c-2.712.453-5.799-.627-7.21-1.712 2.927-.488 7.188-.002 8.185 1.55z"/><text fill="#333" font-family="PingFangTC-Medium, PingFang TC" font-size="9" font-weight="400"><tspan x="13" y="20">精選</tspan></text></g></svg>