<svg xmlns="http://www.w3.org/2000/svg" width="285" height="201" viewBox="0 0 285 201">
    <g fill="none" fill-rule="evenodd">
        <g opacity=".475">
            <path fill="#A1D7DA" fill-rule="nonzero" d="M215 114.51c0 29.105-17.078 54.854-43.259 70.528C154.956 195.09 134.426 201 112.26 201c-29.53 0-52.057-11.151-69.001-28.234-15.619-15.74-26.494-36.522-33.74-58.257C-22.83 17.47 31.208-9.003 112.26 28.02 163.864 51.593 215 66.743 215 114.509z"/>
            <g>
                <path fill="#DDD" fill-rule="nonzero" d="M29.146 90.608V53.856h-2.57v36.752c-3.489.116-6.145.692-6.145 1.389 0 .78 3.326 1.413 7.43 1.413 4.103 0 7.429-.633 7.429-1.413 0-.697-2.657-1.273-6.144-1.389" transform="translate(204)"/>
                <path fill="#86D7DB" fill-rule="nonzero" d="M.316 28.762c-.42-.421-.42-1.103 0-1.524L27.238.316c.42-.42 1.103-.42 1.524 0l26.922 26.922c.421.42.421 1.103 0 1.524L28.762 55.684c-.42.42-1.103.42-1.524 0L.316 28.762z" transform="translate(204)"/>
                <path fill="#FFF" fill-rule="nonzero" d="M47.685 31.271L31.272 47.682c-1.745 1.748-4.794 1.75-6.548 0h.001L8.312 31.272c-1.807-1.809-1.807-4.74 0-6.548l16.412-16.41c1.754-1.751 4.803-1.748 6.548 0l16.414 16.41c.871.866 1.36 2.045 1.357 3.274.003 1.229-.486 2.407-1.358 3.273m1.385-7.93L32.657 6.93c-1.233-1.24-2.91-1.935-4.658-1.93-1.76 0-3.415.685-4.66 1.93L6.93 23.34C5.69 24.572 4.994 26.25 5 27.999c0 1.76.685 3.415 1.927 4.657l16.413 16.41c1.233 1.24 2.91 1.935 4.659 1.93 1.748.005 3.425-.69 4.658-1.93l16.413-16.41c1.24-1.232 1.935-2.91 1.93-4.658.005-1.748-.69-3.425-1.93-4.657" transform="translate(204)"/>
                <text fill="#FFF" font-family="Arial-BoldMT, Arial" font-size="14" font-weight="bold" transform="translate(204) translate(16 20)">
                    <tspan x=".321" y="13">403</tspan>
                </text>
            </g>
            <circle cx="49" cy="37" r="6" fill="#F2F2F2" fill-rule="nonzero"/>
            <circle cx="99" cy="53" r="4" fill="#F2F2F2" fill-rule="nonzero"/>
            <circle cx="36" cy="90" r="4" fill="#F2F2F2" fill-rule="nonzero"/>
            <path fill="#3F3D56" fill-rule="nonzero" d="M20 61H21V138H20z"/>
            <ellipse cx="20.5" cy="112.5" fill="#3F3D56" fill-rule="nonzero" rx="8.5" ry="19.5"/>
            <ellipse cx="20.5" cy="68.5" fill="#3F3D56" fill-rule="nonzero" rx="8.5" ry="19.5"/>
            <path fill="#3F3D56" fill-rule="nonzero" d="M20.186 53l-.418-.126c.026-.088 2.594-8.916-1.622-14.599-2.381-3.21-6.468-4.837-12.146-4.837V33c5.825 0 10.03 1.687 12.498 5.015C22.844 43.876 20.214 52.91 20.186 53z"/>
            <circle cx="6.5" cy="33.5" r="5.5" fill="#3F3D56" fill-rule="nonzero"/>
        </g>
        <g opacity=".765" transform="translate(52 53)">
            <circle cx="134.5" cy="45.5" r="7.5" fill="#2F2E41" fill-rule="nonzero"/>
            <path fill="#2F2E41" fill-rule="nonzero" d="M136.814 37.196c2.622 0 5.051 1.482 6.395 3.902 1.344 2.42 1.405 5.421.161 7.902 1.761-2.368 2.126-5.602.943-8.354-1.183-2.752-3.711-4.549-6.53-4.642-2.819-.093-5.445 1.533-6.783 4.202 1.41-1.903 3.55-3.011 5.814-3.01z"/>
            <circle cx="119.5" cy="22.5" r="22.5" fill="#2F2E41" fill-rule="nonzero"/>
            <path fill="#2F2E41" fill-rule="nonzero" d="M101.82 8.818c8.058-9.335 21.85-10.41 31.18-2.43-.184-.18-.366-.362-.557-.537-9.287-8.5-23.505-7.638-31.76 1.927-8.253 9.564-7.42 24.21 1.864 32.715.19.175.387.34.583.507-8.787-8.61-9.366-22.845-1.31-32.182z"/>
            <circle cx="119.5" cy="30.5" r="14.5" fill="#FFCAB8" fill-rule="nonzero"/>
            <path fill="#FFCAB8" fill-rule="nonzero" d="M108.49 35s1.955 17.524-1.174 19.429c-3.129 1.904 17.99 4.571 17.99 4.571S122.179 39.952 130 35h-21.51z"/>
            <path fill="#E1E1E1" fill-rule="nonzero" d="M127.737 52.426s5.786-2.648-2.547-1.705c-8.333.943-15.522-2.675-15.522-2.675s-2.525-2.476-2.914.19c-.388 2.667 1.166 7.618-7.383 8.38-8.548.761-16.32-1.524-19.428 4.19-3.109 5.712-1.554 30.47-1.554 30.47s5.828 20.567 10.491 23.614c4.663 3.047 45.463-1.143 45.463-1.143L146 93.18V69.185s-1.554-8.38-12.434-6.094c0 0-6.995-1.524-6.606-4.952.389-3.428.777-5.713.777-5.713z"/>
            <path fill="#2F2E41" fill-rule="nonzero" d="M91.523 128.758c.238-1.035.397-1.62.397-1.62l-.123-.842-1.265-8.6L90 114.07c4.606-1.922 5.759-10.763 5.759-10.763l.173-.104.786-.471v-.002l2.823-1.695.057-.034 1.14.76 2.315 1.546c8.102 5.965 16.353 5.859 21.444 4.919 3.112-.575 5.047-1.46 5.047-1.46l5.585-1.864.173-.057.172.025 3.276.496.059.011.271.04-.758 5.25-1.1 7.63c2.905 1.54 5.488 4.434 7.746 8 .5.789.985 1.61 1.454 2.462.61 1.103 1.192 2.251 1.747 3.426.068.14.134.282.2.424.214.46.425.925.631 1.392H90.506c.077-.469.153-.916.227-1.347l.009-.045c.027-.144.053-.284.076-.424.258-1.4.508-2.569.705-3.426z"/>
            <path fill="#2F2E41" fill-rule="nonzero" d="M89 56.03s4.258 7.722 2.71 17.376C90.16 83.059 96.355 107 96.355 107l4.645-1.158s-3.097-20.08-2.323-24.713c.775-4.634.775-22.782-3.096-25.1-3.871-2.316-6.581 0-6.581 0zM132.003 63.19l1.73 41.917 3.29 1.893s4.732-46 2.264-46h-5.023c-.62 0-1.214.234-1.641.648-.428.414-.652.972-.62 1.542z"/>
            <circle cx="98" cy="103" r="2" fill="#4FD2E0" fill-rule="nonzero"/>
            <circle cx="136" cy="105" r="2" fill="#4FD2E0" fill-rule="nonzero"/>
            <path fill="#2F2E41" fill-rule="nonzero" d="M107 13L107 27 110.333 27 114.576 22.579 114.008 27 128.742 27 127.833 22.579 129.651 27 132 27 132 13z"/>
            <ellipse cx="105" cy="27" fill="#FFB8B8" fill-rule="nonzero" rx="1" ry="2"/>
            <ellipse cx="134" cy="27" fill="#FFB8B8" fill-rule="nonzero" rx="1" ry="2"/>
            <path fill="#FFB8B8" fill-rule="nonzero" d="M141.25 105.02s-17.078-3.616-18.204 2.767C121.92 114.17 142 111.404 142 111.404l-.75-6.383z"/>
            <path fill="#E1E1E1" fill-rule="nonzero" d="M140.702 65s42.072 33.03 34.352 41.004c-7.72 7.973-37.054 5.695-37.054 5.695l1.93-9.492 16.983-1.898-8.492-8.353-7.72.76V65z"/>
            <path fill="#FFB8B8" fill-rule="nonzero" d="M80 120.469l5.496 4.297s3.925 12.11 9.813 8.594c5.889-3.516-5.495-16.016-5.495-16.016L83.14 115 80 120.469z"/>
            <path fill="#E1E1E1" fill-rule="nonzero" d="M85 59l-5.32 1.6S42.702 87.953 41.178 95.572c-1.524 7.62 7.24 11.81 7.24 11.81L81.57 123l3.43-9.143-15.623-8s1.143-2.286-3.43-2.667c-4.573-.38-5.335-5.333-5.335-5.333s9.146-14.095 14.1-11.047c4.953 3.047 6.477 5.333 6.477 5.333L85 59z"/>
            <path fill="#3F3D56" fill-rule="nonzero" d="M162 129.705v1.337c0 .367-.064.73-.192 1.073-.057.152-.125.3-.205.44-.512.896-1.44 1.445-2.44 1.445H64.837c-1 0-1.928-.549-2.44-1.445-.08-.14-.148-.288-.205-.44-.128-.342-.192-.706-.192-1.073v-1.337c0-.785.299-1.537.83-2.092.533-.555 1.254-.867 2.007-.866h5.437v-.624c0-.032.012-.064.035-.087.022-.023.052-.036.083-.036h2.837c.032 0 .062.013.084.036.022.023.035.055.034.087v.624h1.773v-.624c0-.032.012-.064.034-.087.022-.023.053-.036.084-.036h2.837c.031 0 .061.013.084.036.022.023.034.055.034.087v.624h1.775v-.624c0-.032.012-.064.034-.087.022-.023.052-.036.084-.036h2.837c.031 0 .061.013.083.036.023.023.035.055.035.087v.624h1.772v-.624c0-.032.013-.064.035-.087.022-.023.052-.036.084-.036h2.836c.032 0 .062.013.084.036.022.023.035.055.035.087v.624h1.772v-.624c0-.032.012-.064.034-.087.023-.023.053-.036.084-.036h2.837c.031 0 .062.013.084.036.022.023.034.055.034.087v.624h1.775v-.624c0-.032.012-.064.034-.087.022-.023.053-.036.084-.036h2.837c.031 0 .061.013.084.036.022.023.034.055.034.087v.624h1.772v-.624c0-.032.013-.064.035-.087.022-.023.052-.036.084-.036h22.221c.032 0 .062.013.084.036.022.023.035.055.035.087v.624h1.774v-.624c0-.032.012-.064.035-.087.022-.023.052-.036.083-.036h2.837c.065 0 .118.055.119.123v.624h1.772v-.624c0-.032.012-.064.034-.087.023-.023.053-.036.084-.036h2.837c.031 0 .061.013.084.036.022.023.034.055.034.087v.624h1.772v-.624c0-.032.013-.064.035-.087.022-.023.052-.036.084-.036h2.837c.031 0 .061.013.083.036.023.023.035.055.035.087v.624h1.774v-.624c0-.032.013-.064.035-.087.022-.023.052-.036.084-.036h2.836c.065 0 .117.056.117.123v.624h1.774v-.624c0-.032.012-.064.035-.087.022-.023.052-.036.083-.036h2.837c.032 0 .062.013.084.036.022.023.034.055.034.087v.624h1.773v-.624c0-.032.012-.064.034-.087.022-.023.053-.036.084-.036h2.837c.031 0 .061.013.084.036.022.023.034.055.034.087v.624h8.274c.753 0 1.474.311 2.006.866.532.555.831 1.307.831 2.092z"/>
            <path fill="#3F3D56" fill-rule="nonzero" d="M34 132H189V133H34zM153.626 75.73h-35.097V75h-15.914v.73H67.374c-1.311 0-2.374 1.072-2.374 2.395v48.48c0 1.323 1.063 2.395 2.374 2.395h86.252c1.311 0 2.374-1.072 2.374-2.395v-48.48c0-.636-.25-1.245-.695-1.694-.446-.449-1.05-.701-1.679-.701z"/>
            <circle cx="111.5" cy="93.5" r="5.5" stroke="#D0CDE1" stroke-width="2"/>
            <circle cx="109.5" cy="94.5" r="5.5" fill="#E1E1E1" fill-rule="nonzero"/>
            <path fill="#3F3D56" fill-rule="nonzero" d="M5 140H46V141H5zM180 140H221V141H180zM28.863 125.129C24.848 131.756 26.23 140 26.23 140s7.891-2.501 11.907-9.129C42.152 124.244 40.77 116 40.77 116s-7.891 2.501-11.907 9.129z"/>
            <path fill="#4FD2E0" fill-rule="nonzero" d="M25.994 140l-.237-.038c-.086-.014-8.638-1.448-13.76-7.652C6.876 126.106 7 117.331 7 117.243l.006-.243.237.038c.086.014 8.638 1.448 13.76 7.652C26.124 130.894 26 139.67 26 139.757l-.006.243z"/>
            <path fill="#3F3D56" fill-rule="nonzero" d="M25.727 140l-.23-.071c-.082-.026-8.329-2.65-12.497-9.394-4.169-6.743-2.782-15.215-2.767-15.3l.04-.235.23.071c.082.026 8.329 2.65 12.497 9.394 4.169 6.743 2.782 15.215 2.767 15.3l-.04.235zm-15.116-24.453c-.19 1.422-.946 8.797 2.746 14.77 3.693 5.975 10.668 8.657 12.032 9.136.19-1.422.946-8.797-2.746-14.77-3.693-5.975-10.667-8.657-12.032-9.136z"/>
            <circle cx="26.5" cy="113.5" r="4.5" fill="#3F3D56" fill-rule="nonzero"/>
            <path fill="#3F3D56" fill-rule="nonzero" d="M84.696 55L57.73 27.433 45 27.433 45 27 57.909 27 57.972 27.064 85 54.695zM147.304 54L174.269 26.433 187 26.433 187 26 174.091 26 174.028 26.064 147 53.695z"/>
            <path fill="#E1E1E1" fill-rule="nonzero" d="M0 15H31V21H0zM0 24H31V30H0zM0 33H31V39H0z"/>
            <path fill="#000" fill-rule="nonzero" d="M0 15H13V21H0zM0 24H4V30H0zM0 33H21V39H0z" opacity=".15"/>
            <path fill="#E1E1E1" fill-rule="nonzero" d="M202 16H233V19H202z"/>
            <path fill="#4FD2E0" fill-rule="nonzero" d="M191 15H197V21H191zM191 25H197V31H191zM191 34H197V40H191z"/>
            <path fill="#3F3D56" fill-rule="nonzero" d="M199 20h-7v-7h7v7zm-6.548-.452h6.096v-6.096h-6.096v6.096z"/>
            <path fill="#E1E1E1" fill-rule="nonzero" d="M202 25H233V28H202z"/>
            <path fill="#3F3D56" fill-rule="nonzero" d="M199 30h-7v-7h7v7zm-6.548-.452h6.096v-6.096h-6.096v6.096z"/>
            <path fill="#E1E1E1" fill-rule="nonzero" d="M202 34H233V37H202z"/>
            <path fill="#3F3D56" fill-rule="nonzero" d="M199 39h-7v-7h7v7zm-6.548-.452h6.096v-6.096h-6.096v6.096z"/>
            <circle cx="40.5" cy="17.5" r="3.5" fill="#4FD2E0" fill-rule="nonzero"/>
            <circle cx="40.5" cy="27.5" r="3.5" fill="#4FD2E0" fill-rule="nonzero"/>
            <circle cx="40.5" cy="37.5" r="3.5" fill="#4FD2E0" fill-rule="nonzero"/>
            <path fill="#3F3D56" fill-rule="nonzero" d="M38 20c-2.21 0-4-1.79-4-4s1.79-4 4-4 4 1.79 4 4c-.002 2.208-1.792 3.998-4 4zm0-7.53c-1.95 0-3.53 1.58-3.53 3.53 0 1.95 1.58 3.53 3.53 3.53 1.95 0 3.53-1.58 3.53-3.53-.003-1.948-1.582-3.527-3.53-3.53zM38 31c-2.21 0-4-1.79-4-4s1.79-4 4-4 4 1.79 4 4c-.002 2.208-1.792 3.998-4 4zm0-7.53c-1.95 0-3.53 1.58-3.53 3.53 0 1.95 1.58 3.53 3.53 3.53 1.95 0 3.53-1.58 3.53-3.53-.003-1.948-1.582-3.527-3.53-3.53zM38 40c-2.21 0-4-1.79-4-4s1.79-4 4-4 4 1.79 4 4c-.002 2.208-1.792 3.998-4 4zm0-7.53c-1.95 0-3.53 1.58-3.53 3.53 0 1.95 1.58 3.53 3.53 3.53 1.95 0 3.53-1.58 3.53-3.53-.003-1.948-1.582-3.527-3.53-3.53zM209.116 126h-.418v-2.935c0-.324.281-.586.628-.587h1.046c.116 0 .21-.087.21-.195v-1.957c0-.108-.094-.195-.21-.196h-1.046c-.347 0-.628-.263-.628-.587v-.978c0-.108-.094-.195-.21-.195h-1.883c-.347 0-.628-.263-.628-.587v-.196c0-.108-.094-.196-.21-.196h-7.534c-.116 0-.21.088-.21.196v.196c0 .324-.281.586-.628.587h-1.883c-.116 0-.21.087-.21.195v.978c0 .324-.281.587-.628.587h-1.046c-.116 0-.21.088-.21.196v1.957c0 .108.094.195.21.195h1.256c.346 0 .627.263.628.587V126h-.419v-2.935c0-.108-.094-.195-.21-.195h-1.255c-.347 0-.628-.263-.628-.587v-1.957c0-.324.281-.587.628-.587h1.046c.116 0 .21-.087.21-.196v-.978c0-.324.281-.586.628-.587h1.883c.116 0 .21-.087.21-.195v-.196c0-.324.28-.587.628-.587h7.534c.347 0 .628.263.628.587v.196c0 .108.094.195.21.195h1.883c.347 0 .628.263.628.587v.978c0 .109.094.196.21.196h1.046c.347 0 .628.263.628.587v1.957c0 .324-.281.586-.628.587h-1.046c-.116 0-.21.087-.21.195V126zM208.373 140h-12.746c-.346 0-.627-.263-.627-.587V131h.418v8.413c0 .108.093.196.209.196h12.746c.116 0 .209-.088.21-.196V131H209v8.413c0 .324-.28.587-.627.587z"/>
            <rect width="17" height="5" x="195" y="128" fill="#4FD2E0" fill-rule="nonzero" rx="2"/>
            <path fill="#3F3D56" fill-rule="nonzero" d="M210.333 131h-16.666c-.368 0-.667-.258-.667-.577v-3.846c0-.319.299-.577.667-.577h16.666c.368 0 .667.258.667.577v3.846c0 .319-.299.577-.667.577zm-16.666-4.615c-.123 0-.223.086-.223.192v3.846c0 .106.1.192.223.192h16.666c.123 0 .223-.086.223-.192v-3.846c0-.106-.1-.192-.223-.192h-16.666z"/>
            <path fill="#D0CDE1" fill-rule="nonzero" d="M202 115c-.69-3.837-.872-7.725-.543-11.595L202 97c-2.994 4.921-2.318 11.398 0 18zM204 117c-.345-2.35-.436-4.722-.272-7.086L204 106c-1.497 3.007-1.159 6.966 0 11z"/>
        </g>
    </g>
</svg>
