<svg xmlns="http://www.w3.org/2000/svg" xmlns:xlink="http://www.w3.org/1999/xlink" width="180" height="26" viewBox="0 0 180 26">
    <defs>
        <path id="a" d="M0 .429h32.17v24.09H0z"/>
        <path id="c" d="M154.665 1.441h25.007v23.67h-25.007z"/>
    </defs>
    <g fill="none" fill-rule="evenodd">
        <g transform="translate(0 .946)">
            <mask id="b" fill="#fff">
                <use xlink:href="#a"/>
            </mask>
            <path fill="#686868" d="M27.735 12.473v.002h4.435v-.002C32.17 5.82 26.542.43 19.595.43c-4.54 0-8.505 2.308-10.716 5.755V.43H4.44L-.002 4.68h4.44v19.84h4.44V18.76c-1.176-1.833-1.866-3.981-1.866-6.286 0-2.506.977-4.788 2.579-6.535l.12-.126c.223-.237.457-.46.702-.674l.15-.13c.27-.226.55-.44.843-.637.025-.016.046-.034.069-.05.328-.219.67-.42 1.025-.6l.042-.021c.318-.161.649-.305.987-.433.1-.04.203-.074.308-.11.257-.09.52-.17.79-.24a9.98 9.98 0 0 1 1.193-.24c.116-.017.233-.04.352-.053.395-.043.793-.07 1.2-.07.602 0 1.19.055 1.764.15.074.014.15.017.225.032.098.02.194.047.292.067a10.632 10.632 0 0 1 2.447.842c.28.138.553.287.818.45.023.013.043.03.067.046.241.148.479.305.707.474.021.016.039.033.058.047.23.172.45.35.663.539.019.016.034.035.054.05.21.192.417.387.609.594.023.025.041.05.063.074.186.202.367.41.537.628.07.093.134.194.204.288.11.153.225.301.328.461.102.164.193.337.289.506.054.097.115.193.168.294.097.188.18.385.264.581.038.086.082.17.118.258.111.279.208.561.292.852l.009.027c.174.6.29 1.22.343 1.86.029.262.043.529.043.797" mask="url(#b)"/>
        </g>
        <path fill="#686868" d="M43.973 16.962H36.57l7.403-7.08v7.08zm4.435 0V1.375h-.74l-19.98 19.131h16.285v4.963h4.435v-4.963h5.178v-3.544h-5.178z"/>
        <path fill="#FF7800" d="M27.688 20.505l4.006-3.837c.302-1.035.476-2.12.476-3.247h-4.435c0 4.3-3.642 7.793-8.141 7.793-4.5 0-8.138-3.492-8.138-7.793 0-4.303 3.638-7.796 8.138-7.796 4.214 0 7.678 3.067 8.097 6.992-.425-5.099-4.876-9.116-10.32-9.116-5.724 0-10.358 4.443-10.358 9.92 0 6.65 5.63 12.047 12.58 12.047 4.181 0 7.87-1.96 10.157-4.963h-2.062z"/>
        <path fill="#686868" d="M75.19 18.632v1.336h5.344c.068-.016.104-.05.104-.101v-1.235h-5.449zm5.448-1.79v-1.16c0-.049-.036-.075-.104-.075h-5.345v1.234h5.449zm-10.24-8.949c0 .219.105.328.316.328h6.95c.227 0 .343-.11.343-.328V7.29h-7.608v.604zm0-2.294h7.609V4.515h-7.608V5.6zm2.606 11.242v-1.234h-5.37c-.07 0-.096.026-.078.075v1.16h5.448zm-5.448 1.79v1.236c-.018.05.008.085.078.101h5.37v-1.336h-5.448zm2.896 3.126l.815 1.589c-2.491 1.142-4.765 1.79-6.817 1.94.051-.84.017-1.537-.106-2.092 1.668-.1 3.395-.58 5.186-1.437h-3.79c-.176-.016-.264-.109-.264-.277v-7.41c0-.169.088-.252.264-.252h7.264v-1.034h-9.081v.151c-.017 4.522-.552 8.52-1.605 11.998l-2.132-.63c.612-2.033 1.026-3.957 1.237-5.772.192-1.664.298-3.738.315-6.227V3.078c0-.368.194-.554.58-.554h10.528V1.365h2.29v1.16h9.53v1.99h-4.58V5.6h3.685V7.29h-3.685v1.789c0 .556-.29.833-.87.833H69.163c-.563 0-.843-.277-.843-.833v-1.79h-3.422V5.6h3.422V4.515h-4.133c-.175 0-.263.085-.263.253v6.024h20.584v1.992H75.19v1.034h7.239c.192 0 .29.083.29.251v7.411c-.018.186-.115.277-.29.277h-3.37c1.615.354 3.431.942 5.45 1.765l-.737 1.991c-2.563-.992-4.668-1.637-6.319-1.94l.528-1.816h-7.528zM111.596 21.632V17.55c0-.219-.114-.328-.342-.328H97.381c-.245 0-.36.11-.342.328v4.083h14.557zM97.04 25.061h-2.396v-9.655c-.017-.253.115-.378.396-.378h18.453c.33 0 .498.15.498.453v9.58h-2.394v-1.237H97.04v1.237zm6.134-18.528h-7.266c-.772 1.26-1.553 2.252-2.342 2.974l-2.002-1.185c2.018-2.067 3.423-4.344 4.211-6.83l2.16.679a83.934 83.934 0 0 1-.868 2.169h6.107V1.465h2.396V4.34h9.211v2.193h-9.211v4.36h10.37v2.194H92.22v-2.193h10.952V6.533zM146.318 6.91c-.878 2.085-2.22 4.437-4.028 7.06l-2-1.111c1.878-2.789 3.195-5.1 3.949-6.932l2.08.984zm-19.637-.933c1.37 1.765 2.693 4.017 3.975 6.756l-2.054 1.06c-1.422-2.908-2.72-5.126-3.895-6.656l1.974-1.16zm-3.238 11.345v-2.194H134.5V4.415H124.39V2.22h22.559v2.194h-10.055v10.713h10.897v2.194h-10.897v7.864h-2.396v-7.864h-11.056z"/>
        <mask id="d" fill="#fff">
            <use xlink:href="#c"/>
        </mask>
        <path fill="#686868" d="M174.565 21.783v-5.748c0-.218-.114-.327-.342-.327h-14.082c-.247 0-.361.109-.342.327v5.748h14.766zM159.8 25.11h-2.396V14.297c0-.522.27-.782.815-.782h17.901c.56 0 .842.26.842.782V25.11h-2.396v-1.134H159.8v1.134zm-4.503-13.763l-.631-2.268 2.552-.178c1.879-2.234 3.633-4.72 5.265-7.46l1.949 1.159c-.913 1.68-2.29 3.715-4.134 6.1l13.743-.957c-.3-.42-1.423-1.514-3.37-3.277l1.789-1.513c3.124 3.009 5.527 5.546 7.213 7.612l-1.87 1.387a46.343 46.343 0 0 0-1.868-2.193l-20.638 1.588z" mask="url(#d)"/>
    </g>
</svg>
